<svg xmlns="http://www.w3.org/2000/svg" xmlns:xlink="http://www.w3.org/1999/xlink" contentStyleType="text/css" height="579px" preserveAspectRatio="none" style="width:725px;height:579px;background:#FFFFFF;" version="1.1" viewBox="0 0 725 579" width="725px" zoomAndPan="magnify"><title>D-05 &#183; Casos de uso &#8212; Administraci&#243;n del cat&#225;logo y contenidos</title><defs/><g><text fill="#111111" font-family="Arial" font-size="16" font-weight="bold" lengthAdjust="spacing" textLength="577.9141" x="66.6191" y="24.8516">D-05 &#183; Casos de uso &#8212; Administraci&#243;n del cat&#225;logo y contenidos</text><!--cluster SGCD-BH ? Panel de administraci?n--><g id="cluster_SGCD-BH &#183; Panel de administraci&#243;n"><rect fill="none" height="527" rx="5" ry="5" style="stroke:#8A8F98;stroke-width:1;" width="313" x="155" y="46.625"/><text fill="#111111" font-family="Arial" font-size="13" font-weight="bold" lengthAdjust="spacing" textLength="257.8164" x="182.5918" y="60.6919">SGCD-BH &#183; Panel de administraci&#243;n</text></g><g id="elem_CU11"><ellipse cx="311.35" cy="99.395" fill="#FFFFFF" rx="81.85" ry="18.77" style="stroke:#111111;stroke-width:1.2;"/><text fill="#111111" font-family="Arial" font-size="13" lengthAdjust="spacing" textLength="126.3628" x="248.1686" y="101.8955">CU-11 Autenticarse</text></g><g id="elem_CU12"><ellipse cx="311.4018" cy="177.4054" fill="#FFFFFF" rx="104.4018" ry="23.2804" style="stroke:#111111;stroke-width:1.2;"/><text fill="#111111" font-family="Arial" font-size="13" lengthAdjust="spacing" textLength="176.1602" x="223.3217" y="179.9058">CU-12 Gestionar productos</text></g><g id="elem_CU13"><ellipse cx="311.3404" cy="259.6931" fill="#FFFFFF" rx="105.8404" ry="23.5681" style="stroke:#111111;stroke-width:1.2;"/><text fill="#111111" font-family="Arial" font-size="13" lengthAdjust="spacing" textLength="179.2578" x="221.7115" y="262.1936">CU-13 Gestionar categor&#237;as</text></g><g id="elem_CU14"><ellipse cx="311.6396" cy="348.6529" fill="#FFFFFF" rx="140.6396" ry="30.5279" style="stroke:#111111;stroke-width:1.2;"/><text fill="#111111" font-family="Arial" font-size="13" lengthAdjust="spacing" textLength="217.9531" x="202.663" y="343.587">CU-14 Gestionar especificaciones</text><text fill="#111111" font-family="Arial" font-size="13" lengthAdjust="spacing" textLength="53.9805" x="284.6494" y="358.7198">t&#233;cnicas</text></g><g id="elem_CU15"><ellipse cx="311.38" cy="441.701" fill="#FFFFFF" rx="123.38" ry="27.076" style="stroke:#111111;stroke-width:1.2;"/><text fill="#111111" font-family="Arial" font-size="13" lengthAdjust="spacing" textLength="174.6494" x="221.0553" y="437.418">CU-15 Gestionar im&#225;genes</text><text fill="#111111" font-family="Arial" font-size="13" lengthAdjust="spacing" textLength="78.6221" x="269.069" y="452.5509">de producto</text></g><g id="elem_CU17"><ellipse cx="311.252" cy="530.7754" fill="#FFFFFF" rx="123.752" ry="27.1504" style="stroke:#111111;stroke-width:1.2;"/><text fill="#111111" font-family="Arial" font-size="13" lengthAdjust="spacing" textLength="175.6396" x="220.4321" y="526.4924">CU-17 Gestionar contenido</text><text fill="#111111" font-family="Arial" font-size="13" lengthAdjust="spacing" textLength="82.9512" x="266.7764" y="541.6252">y novedades</text></g><!--entity GC--><g id="elem_GC"><ellipse cx="58.4431" cy="268.125" fill="#FFFFFF" rx="8" ry="8" style="stroke:#111111;stroke-width:0.5;"/><path d="M58.4431,276.125 L58.4431,303.125 M45.4431,284.125 L71.4431,284.125 M58.4431,303.125 L45.4431,318.125 M58.4431,303.125 L71.4431,318.125 " fill="none" style="stroke:#111111;stroke-width:0.5;"/><text fill="#111111" font-family="Arial" font-size="13" font-weight="bold" lengthAdjust="spacing" textLength="75.8862" x="20.5" y="331.6919">Gestor del</text><text fill="#111111" font-family="Arial" font-size="13" font-weight="bold" lengthAdjust="spacing" textLength="63.0894" x="20.5" y="346.8247">cat&#225;logo</text></g><!--entity AD--><g id="elem_AD"><ellipse cx="58.4316" cy="143.125" fill="#FFFFFF" rx="8" ry="8" style="stroke:#111111;stroke-width:0.5;"/><path d="M58.4316,151.125 L58.4316,178.125 M45.4316,159.125 L71.4316,159.125 M58.4316,178.125 L45.4316,193.125 M58.4316,178.125 L71.4316,193.125 " fill="none" style="stroke:#111111;stroke-width:0.5;"/><text fill="#111111" font-family="Arial" font-size="13" font-weight="bold" lengthAdjust="spacing" textLength="104.8633" x="6" y="206.6919">Administrador</text><text fill="#111111" font-family="Arial" font-size="13" font-weight="bold" lengthAdjust="spacing" textLength="84.3857" x="6" y="221.8247">del sistema</text></g><g id="elem_GMN18"><path d="M512,145.625 L512,173.625 L416.26,177.625 L512,181.625 L512,209.6484 A5,5 0 0 0 517,214.6484 L713.1523,214.6484 A5,5 0 0 0 718.1523,209.6484 L718.1523,150.625 L708.1523,140.625 L517,140.625 A5,5 0 0 0 512,145.625 " fill="#F7F7F8" style="stroke:#A0A4AB;stroke-width:0.5;"/><path d="M708.1523,140.625 L708.1523,148.125 A2.5,2.5 0 0 0 710.6523,150.625 L718.1523,150.625 L708.1523,140.625 " fill="#F7F7F8" style="stroke:#A0A4AB;stroke-width:0.5;"/><text fill="#111111" font-family="Arial" font-size="11" lengthAdjust="spacing" textLength="173.3628" x="518" y="155.8354">Precondici&#243;n de CU-12&#8230;CU-17:</text><text fill="#111111" font-family="Arial" font-size="11" lengthAdjust="spacing" textLength="154.7251" x="518" y="168.6401">sesi&#243;n iniciada (CU-11) y rol</text><text fill="#111111" font-family="Arial" font-size="11" lengthAdjust="spacing" textLength="153.1675" x="518" y="181.4448">con la capacidad requerida.</text><text fill="#111111" font-family="Arial" font-size="11" lengthAdjust="spacing" textLength="185.1523" x="518" y="194.2495">Toda escritura genera un registro</text><text fill="#111111" font-family="Arial" font-size="11" lengthAdjust="spacing" textLength="115.7739" x="518" y="207.0542">de auditor&#237;a (RN-09).</text></g><!--link AD to GC--><g id="link_AD_GC"><path d="M58.5,224.705 C58.5,236.205 58.5,229.715 58.5,241.215 " fill="none" id="AD-to-GC" style="stroke:#3A3A3A;stroke-width:1;"/><polygon fill="none" points="58.5,259.215,64.5,241.215,52.5,241.215,58.5,259.215" style="stroke:#3A3A3A;stroke-width:1;"/></g><!--link GC to CU11--><g id="link_GC_CU11"><path d="M96.59,263.405 C101.86,256.425 106.88,249.035 111,241.625 C134.99,198.515 110.29,169.575 147,136.625 C169.52,116.405 200.73,106.505 229.85,101.885 " fill="none" id="GC-CU11" style="stroke:#3A3A3A;stroke-width:1;"/></g><!--link GC to CU12--><g id="link_GC_CU12"><path d="M96.68,259.345 C111.01,244.445 128.42,229.045 147,218.625 C170.35,205.525 197.9,196.555 223.66,190.425 " fill="none" id="GC-CU12" style="stroke:#3A3A3A;stroke-width:1;"/></g><!--link GC to CU13--><g id="link_GC_CU13"><path d="M96.54,297.985 C131.17,291.775 184.1,282.285 228.65,274.295 " fill="none" id="GC-CU13" style="stroke:#3A3A3A;stroke-width:1;"/></g><!--link GC to CU14--><g id="link_GC_CU14"><path d="M96.54,311.115 C124.35,315.995 163.97,322.935 201.57,329.525 " fill="none" id="GC-CU14" style="stroke:#3A3A3A;stroke-width:1;"/></g><!--link GC to CU15--><g id="link_GC_CU15"><path d="M93.77,350.005 C108.51,366.785 126.95,384.625 147,396.625 C167.59,408.955 191.64,417.995 214.86,424.585 " fill="none" id="GC-CU15" style="stroke:#3A3A3A;stroke-width:1;"/></g><!--link GC to CU17--><g id="link_GC_CU17"><path d="M69.97,349.955 C81.82,391.185 105.16,450.775 147,485.625 C163.97,499.755 185.02,509.475 206.32,516.145 " fill="none" id="GC-CU17" style="stroke:#3A3A3A;stroke-width:1;"/></g><!--SRC=[NPA_ZjGm4CPxFyMmrLsHrUq_hQ0uQSbAIuLEm7Kh8SkU3IDvFOlj89q0wHw25xW6YOAAWfwyoJq9ut19bbGUnx_F_lBDF2DlN6qHtcDCv7XAzT4fXuS4YI5GzI61fO0c4NkLA3c4RN6rWZ-_eTIH8uYsZWoFzzzWOu_aAQQW3JM_l1mvC3er3uuhXZimx1DwiXoLqYPnWCbEdfLLoBtlqGde2BkoOuPhBOUzpxT6sU9Hj-1cgpPRABvSPudALhMlnERaxQxS5YzVPQitsejAhEh_BKxWimBnZqP7KPItnMm6crfS9Z8wH6nVA6zdip4sXsnTGj41Je5jBLvZHy_7zEACbj_4YaFpK_VyOimlptYC9pHq43z6Fc3S-zJyC5xslNuvrg_Ez7Hi7YfiXH90vxMJhiRIzRdLhc5xVmUUFw7L5ljNr-ghsfLG5Fy2wilvK2w6SZcKgw5SA-KvuTEayQ5BxqRwoDvIDqZGPlvu_xsr-4A8YB4zatOQqbR3HTkzIvcpm4u0qOFJ4lT9WXFZ4F1ZZK7AgPo-Ov5WD85I7JJaW6IflL1LdWyM9izBRIcrpOABDw-Bg-UNKuNUGZRz5m00]--></g></svg>