<svg xmlns="http://www.w3.org/2000/svg" xmlns:xlink="http://www.w3.org/1999/xlink" contentStyleType="text/css" height="1031px" preserveAspectRatio="none" style="width:1048px;height:1031px;background:#FFFFFF;" version="1.1" viewBox="0 0 1048 1031" width="1048px" zoomAndPan="magnify"><title>D-09 &#183; Diagrama de clases de dise&#241;o &#8212; Paquete Cat&#225;logo</title><defs/><g><text fill="#111111" font-family="Arial" font-size="16" font-weight="bold" lengthAdjust="spacing" textLength="516.1641" x="259.407" y="24.8516">D-09 &#183; Diagrama de clases de dise&#241;o &#8212; Paquete Cat&#225;logo</text><!--class EstadoProducto--><g id="elem_EstadoProducto"><rect codeLine="4" fill="#FFFFFF" height="91.3984" id="EstadoProducto" rx="5" ry="5" style="stroke:#111111;stroke-width:0.5;" width="132.083" x="7" y="758.625"/><rect fill="#F2F2F4" height="30" rx="5" ry="5" style="stroke:#F2F2F4;stroke-width:0.5;" width="132.083" x="7" y="758.625"/><rect fill="#F2F2F4" height="5" style="stroke:#F2F2F4;stroke-width:0.5;" width="132.083" x="7" y="783.625"/><rect codeLine="4" fill="none" height="91.3984" id="EstadoProducto" rx="5" ry="5" style="stroke:#111111;stroke-width:0.5;" width="132.083" x="7" y="758.625"/><ellipse cx="21" cy="773.625" fill="#EB937F" rx="10" ry="10" style="stroke:#181818;stroke-width:1;"/><path d="M23.4688,778.125 L17.5625,778.125 L17.5625,768.6406 L23.4688,768.6406 L23.4688,770.2969 L19.4375,770.2969 L19.4375,772.3438 L23.0938,772.3438 L23.0938,774 L19.4375,774 L19.4375,776.4688 L23.4688,776.4688 L23.4688,778.125 Z " fill="#111111"/><text fill="#111111" font-family="Arial" font-size="13" lengthAdjust="spacing" textLength="102.083" x="34" y="778.1255">EstadoProducto</text><line style="stroke:#111111;stroke-width:0.5;" x1="8" x2="138.083" y1="788.625" y2="788.625"/><text fill="#111111" font-family="Arial" font-size="13" lengthAdjust="spacing" textLength="75.3848" x="13" y="804.6919">BORRADOR</text><text fill="#111111" font-family="Arial" font-size="13" lengthAdjust="spacing" textLength="75.5625" x="13" y="819.8247">PUBLICADO</text><text fill="#111111" font-family="Arial" font-size="13" lengthAdjust="spacing" textLength="115.6606" x="13" y="834.9575">DESCONTINUADO</text><line style="stroke:#111111;stroke-width:0.5;" x1="8" x2="138.083" y1="842.0234" y2="842.0234"/></g><!--class EstadoVerificacion--><g id="elem_EstadoVerificacion"><rect codeLine="9" fill="#FFFFFF" height="76.2656" id="EstadoVerificacion" rx="5" ry="5" style="stroke:#111111;stroke-width:0.5;" width="150.3579" x="623" y="948.625"/><rect fill="#F2F2F4" height="30" rx="5" ry="5" style="stroke:#F2F2F4;stroke-width:0.5;" width="150.3579" x="623" y="948.625"/><rect fill="#F2F2F4" height="5" style="stroke:#F2F2F4;stroke-width:0.5;" width="150.3579" x="623" y="973.625"/><rect codeLine="9" fill="none" height="76.2656" id="EstadoVerificacion" rx="5" ry="5" style="stroke:#111111;stroke-width:0.5;" width="150.3579" x="623" y="948.625"/><ellipse cx="637" cy="963.625" fill="#EB937F" rx="10" ry="10" style="stroke:#181818;stroke-width:1;"/><path d="M639.4688,968.125 L633.5625,968.125 L633.5625,958.6406 L639.4688,958.6406 L639.4688,960.2969 L635.4375,960.2969 L635.4375,962.3438 L639.0938,962.3438 L639.0938,964 L635.4375,964 L635.4375,966.4688 L639.4688,966.4688 L639.4688,968.125 Z " fill="#111111"/><text fill="#111111" font-family="Arial" font-size="13" lengthAdjust="spacing" textLength="120.3579" x="650" y="968.1255">EstadoVerificacion</text><line style="stroke:#111111;stroke-width:0.5;" x1="624" x2="772.3579" y1="978.625" y2="978.625"/><text fill="#111111" font-family="Arial" font-size="13" lengthAdjust="spacing" textLength="79.498" x="629" y="994.6919">VERIFICADO</text><text fill="#111111" font-family="Arial" font-size="13" lengthAdjust="spacing" textLength="73.7153" x="629" y="1009.8247">PENDIENTE</text><line style="stroke:#111111;stroke-width:0.5;" x1="624" x2="772.3579" y1="1016.8906" y2="1016.8906"/></g><!--class Categoria--><g id="elem_Categoria"><rect codeLine="13" fill="#FFFFFF" height="136.7969" id="Categoria" rx="5" ry="5" style="stroke:#111111;stroke-width:0.5;" width="263.5005" x="174" y="735.625"/><rect fill="#F2F2F4" height="30" rx="5" ry="5" style="stroke:#F2F2F4;stroke-width:0.5;" width="263.5005" x="174" y="735.625"/><rect fill="#F2F2F4" height="5" style="stroke:#F2F2F4;stroke-width:0.5;" width="263.5005" x="174" y="760.625"/><rect codeLine="13" fill="none" height="136.7969" id="Categoria" rx="5" ry="5" style="stroke:#111111;stroke-width:0.5;" width="263.5005" x="174" y="735.625"/><ellipse cx="270.1167" cy="750.625" fill="#ADD1B2" rx="10" ry="10" style="stroke:#181818;stroke-width:1;"/><path d="M271.9761,754.8594 Q271.5386,755.0781 271.0386,755.1875 Q270.5542,755.3125 270.0229,755.3125 Q268.1011,755.3125 267.0854,754.0469 Q266.0854,752.7813 266.0854,750.3906 Q266.0854,748 267.0854,746.7344 Q268.1011,745.4688 270.0229,745.4688 Q270.5542,745.4688 271.0542,745.5938 Q271.5542,745.7031 271.9761,745.9375 L271.9761,748.0156 Q271.4917,747.5781 271.0386,747.375 Q270.5854,747.1563 270.1011,747.1563 Q269.0854,747.1563 268.5542,747.9844 Q268.0229,748.7969 268.0229,750.3906 Q268.0229,752 268.5542,752.8125 Q269.0854,753.625 270.1011,753.625 Q270.5854,753.625 271.0386,753.4219 Q271.4917,753.2188 271.9761,752.7656 L271.9761,754.8594 Z " fill="#111111"/><text fill="#111111" font-family="Arial" font-size="13" lengthAdjust="spacing" textLength="63.2671" x="289.1167" y="755.1255">Categoria</text><line style="stroke:#111111;stroke-width:0.5;" x1="175" x2="436.5005" y1="765.625" y2="765.625"/><text fill="#111111" font-family="Arial" font-size="13" lengthAdjust="spacing" textLength="46.1475" x="180" y="781.6919">-id : int</text><text fill="#111111" font-family="Arial" font-size="13" lengthAdjust="spacing" textLength="106.5835" x="180" y="796.8247">-nombre : String</text><text fill="#111111" font-family="Arial" font-size="13" lengthAdjust="spacing" textLength="83.0083" x="180" y="811.9575">-slug : String</text><text fill="#111111" font-family="Arial" font-size="13" lengthAdjust="spacing" textLength="130.4634" x="180" y="827.0903">-descripcion : String</text><line style="stroke:#111111;stroke-width:0.5;" x1="175" x2="436.5005" y1="834.1563" y2="834.1563"/><text fill="#111111" font-family="Arial" font-size="13" lengthAdjust="spacing" textLength="251.5005" x="180" y="850.2231">+obtenerProductos() : List&lt;Producto&gt;</text><text fill="#111111" font-family="Arial" font-size="13" lengthAdjust="spacing" textLength="183.1997" x="180" y="865.356">+tieneProductos() : boolean</text></g><!--class Producto--><g id="elem_Producto"><rect codeLine="21" fill="#FFFFFF" height="242.7266" id="Producto" rx="5" ry="5" style="stroke:#111111;stroke-width:0.5;" width="390.3965" x="300" y="403.625"/><rect fill="#F2F2F4" height="30" rx="5" ry="5" style="stroke:#F2F2F4;stroke-width:0.5;" width="390.3965" x="300" y="403.625"/><rect fill="#F2F2F4" height="5" style="stroke:#F2F2F4;stroke-width:0.5;" width="390.3965" x="300" y="428.625"/><rect codeLine="21" fill="none" height="242.7266" id="Producto" rx="5" ry="5" style="stroke:#111111;stroke-width:0.5;" width="390.3965" x="300" y="403.625"/><ellipse cx="462.2847" cy="418.625" fill="#ADD1B2" rx="10" ry="10" style="stroke:#181818;stroke-width:1;"/><path d="M464.144,422.8594 Q463.7065,423.0781 463.2065,423.1875 Q462.7222,423.3125 462.1909,423.3125 Q460.269,423.3125 459.2534,422.0469 Q458.2534,420.7813 458.2534,418.3906 Q458.2534,416 459.2534,414.7344 Q460.269,413.4688 462.1909,413.4688 Q462.7222,413.4688 463.2222,413.5938 Q463.7222,413.7031 464.144,413.9375 L464.144,416.0156 Q463.6597,415.5781 463.2065,415.375 Q462.7534,415.1563 462.269,415.1563 Q461.2534,415.1563 460.7222,415.9844 Q460.1909,416.7969 460.1909,418.3906 Q460.1909,420 460.7222,420.8125 Q461.2534,421.625 462.269,421.625 Q462.7534,421.625 463.2065,421.4219 Q463.6597,421.2188 464.144,420.7656 L464.144,422.8594 Z " fill="#111111"/><text fill="#111111" font-family="Arial" font-size="13" lengthAdjust="spacing" textLength="57.8271" x="481.2847" y="423.1255">Producto</text><line style="stroke:#111111;stroke-width:0.5;" x1="301" x2="689.3965" y1="433.625" y2="433.625"/><text fill="#111111" font-family="Arial" font-size="13" lengthAdjust="spacing" textLength="46.1475" x="306" y="449.6919">-id : int</text><text fill="#111111" font-family="Arial" font-size="13" lengthAdjust="spacing" textLength="169.8188" x="306" y="464.8247">-modelo : String {unique}</text><text fill="#111111" font-family="Arial" font-size="13" lengthAdjust="spacing" textLength="106.5835" x="306" y="479.9575">-nombre : String</text><text fill="#111111" font-family="Arial" font-size="13" lengthAdjust="spacing" textLength="83.0083" x="306" y="495.0903">-slug : String</text><text fill="#111111" font-family="Arial" font-size="13" lengthAdjust="spacing" textLength="130.4634" x="306" y="510.2231">-descripcion : String</text><text fill="#111111" font-family="Arial" font-size="13" lengthAdjust="spacing" textLength="163.4585" x="306" y="525.356">-estado : EstadoProducto</text><text fill="#111111" font-family="Arial" font-size="13" lengthAdjust="spacing" textLength="136.7158" x="306" y="540.4888">-destacado : boolean</text><text fill="#111111" font-family="Arial" font-size="13" lengthAdjust="spacing" textLength="190.1694" x="306" y="555.6216">-fechaPublicacion : DateTime</text><line style="stroke:#111111;stroke-width:0.5;" x1="301" x2="689.3965" y1="562.6875" y2="562.6875"/><text fill="#111111" font-family="Arial" font-size="13" lengthAdjust="spacing" textLength="113.6167" x="306" y="578.7544">+publicar() : void</text><text fill="#111111" font-family="Arial" font-size="13" lengthAdjust="spacing" textLength="146.0532" x="306" y="593.8872">+descontinuar() : void</text><text fill="#111111" font-family="Arial" font-size="13" lengthAdjust="spacing" textLength="193.1782" x="306" y="609.02">+puedePublicarse() : boolean</text><text fill="#111111" font-family="Arial" font-size="13" lengthAdjust="spacing" textLength="378.3965" x="306" y="624.1528">+obtenerEspecificaciones() : List&lt;EspecificacionTecnica&gt;</text><text fill="#111111" font-family="Arial" font-size="13" lengthAdjust="spacing" textLength="176.2744" x="306" y="639.2856">+obtenerUrlFicha() : String</text></g><!--class EspecificacionTecnica--><g id="elem_EspecificacionTecnica"><rect codeLine="36" fill="#FFFFFF" height="167.0625" id="EspecificacionTecnica" rx="5" ry="5" style="stroke:#111111;stroke-width:0.5;" width="269.8354" x="563" y="720.625"/><rect fill="#F2F2F4" height="30" rx="5" ry="5" style="stroke:#F2F2F4;stroke-width:0.5;" width="269.8354" x="563" y="720.625"/><rect fill="#F2F2F4" height="5" style="stroke:#F2F2F4;stroke-width:0.5;" width="269.8354" x="563" y="745.625"/><rect codeLine="36" fill="none" height="167.0625" id="EspecificacionTecnica" rx="5" ry="5" style="stroke:#111111;stroke-width:0.5;" width="269.8354" x="563" y="720.625"/><ellipse cx="622.7668" cy="735.625" fill="#ADD1B2" rx="10" ry="10" style="stroke:#181818;stroke-width:1;"/><path d="M624.6262,739.8594 Q624.1887,740.0781 623.6887,740.1875 Q623.2043,740.3125 622.6731,740.3125 Q620.7512,740.3125 619.7356,739.0469 Q618.7356,737.7813 618.7356,735.3906 Q618.7356,733 619.7356,731.7344 Q620.7512,730.4688 622.6731,730.4688 Q623.2043,730.4688 623.7043,730.5938 Q624.2043,730.7031 624.6262,730.9375 L624.6262,733.0156 Q624.1418,732.5781 623.6887,732.375 Q623.2356,732.1563 622.7512,732.1563 Q621.7356,732.1563 621.2043,732.9844 Q620.6731,733.7969 620.6731,735.3906 Q620.6731,737 621.2043,737.8125 Q621.7356,738.625 622.7512,738.625 Q623.2356,738.625 623.6887,738.4219 Q624.1418,738.2188 624.6262,737.7656 L624.6262,739.8594 Z " fill="#111111"/><text fill="#111111" font-family="Arial" font-size="13" lengthAdjust="spacing" textLength="142.3018" x="641.7668" y="740.1255">EspecificacionTecnica</text><line style="stroke:#111111;stroke-width:0.5;" x1="564" x2="831.8354" y1="750.625" y2="750.625"/><text fill="#111111" font-family="Arial" font-size="13" lengthAdjust="spacing" textLength="46.1475" x="569" y="766.6919">-id : int</text><text fill="#111111" font-family="Arial" font-size="13" lengthAdjust="spacing" textLength="107.6943" x="569" y="781.8247">-atributo : String</text><text fill="#111111" font-family="Arial" font-size="13" lengthAdjust="spacing" textLength="127.7847" x="569" y="796.9575">-valor : String [0..1]</text><text fill="#111111" font-family="Arial" font-size="13" lengthAdjust="spacing" textLength="139.7754" x="569" y="812.0903">-unidad : String [0..1]</text><text fill="#111111" font-family="Arial" font-size="13" lengthAdjust="spacing" textLength="257.8354" x="569" y="827.2231">-estadoVerificacion : EstadoVerificacion</text><text fill="#111111" font-family="Arial" font-size="13" lengthAdjust="spacing" textLength="137.3633" x="569" y="842.356">-fuente : String [0..1]</text><text fill="#111111" font-family="Arial" font-size="13" lengthAdjust="spacing" textLength="72.0713" x="569" y="857.4888">-orden : int</text><line style="stroke:#111111;stroke-width:0.5;" x1="564" x2="831.8354" y1="864.5547" y2="864.5547"/><text fill="#111111" font-family="Arial" font-size="13" lengthAdjust="spacing" textLength="147.7988" x="569" y="880.6216">+valorVisible() : String</text></g><!--class ImagenProducto--><g id="elem_ImagenProducto"><rect codeLine="46" fill="#FFFFFF" height="121.6641" id="ImagenProducto" rx="5" ry="5" style="stroke:#111111;stroke-width:0.5;" width="173.478" x="868.5" y="743.125"/><rect fill="#F2F2F4" height="30" rx="5" ry="5" style="stroke:#F2F2F4;stroke-width:0.5;" width="173.478" x="868.5" y="743.125"/><rect fill="#F2F2F4" height="5" style="stroke:#F2F2F4;stroke-width:0.5;" width="173.478" x="868.5" y="768.125"/><rect codeLine="46" fill="none" height="121.6641" id="ImagenProducto" rx="5" ry="5" style="stroke:#111111;stroke-width:0.5;" width="173.478" x="868.5" y="743.125"/><ellipse cx="899.014" cy="758.125" fill="#ADD1B2" rx="10" ry="10" style="stroke:#181818;stroke-width:1;"/><path d="M900.8734,762.3594 Q900.4359,762.5781 899.9359,762.6875 Q899.4515,762.8125 898.9202,762.8125 Q896.9984,762.8125 895.9827,761.5469 Q894.9827,760.2813 894.9827,757.8906 Q894.9827,755.5 895.9827,754.2344 Q896.9984,752.9688 898.9202,752.9688 Q899.4515,752.9688 899.9515,753.0938 Q900.4515,753.2031 900.8734,753.4375 L900.8734,755.5156 Q900.389,755.0781 899.9359,754.875 Q899.4827,754.6563 898.9984,754.6563 Q897.9827,754.6563 897.4515,755.4844 Q896.9202,756.2969 896.9202,757.8906 Q896.9202,759.5 897.4515,760.3125 Q897.9827,761.125 898.9984,761.125 Q899.4827,761.125 899.9359,760.9219 Q900.389,760.7188 900.8734,760.2656 L900.8734,762.3594 Z " fill="#111111"/><text fill="#111111" font-family="Arial" font-size="13" lengthAdjust="spacing" textLength="106.7803" x="915.6838" y="762.6255">ImagenProducto</text><line style="stroke:#111111;stroke-width:0.5;" x1="869.5" x2="1040.978" y1="773.125" y2="773.125"/><text fill="#111111" font-family="Arial" font-size="13" lengthAdjust="spacing" textLength="46.1475" x="874.5" y="789.1919">-id : int</text><text fill="#111111" font-family="Arial" font-size="13" lengthAdjust="spacing" textLength="73.3281" x="874.5" y="804.3247">-url : String</text><text fill="#111111" font-family="Arial" font-size="13" lengthAdjust="spacing" textLength="161.478" x="874.5" y="819.4575">-textoAlternativo : String</text><text fill="#111111" font-family="Arial" font-size="13" lengthAdjust="spacing" textLength="72.0713" x="874.5" y="834.5903">-orden : int</text><text fill="#111111" font-family="Arial" font-size="13" lengthAdjust="spacing" textLength="139.7056" x="874.5" y="849.7231">-esPrincipal : boolean</text><line style="stroke:#111111;stroke-width:0.5;" x1="869.5" x2="1040.978" y1="856.7891" y2="856.7891"/></g><!--class ComparacionProducto--><g id="elem_ComparacionProducto"><rect codeLine="53" fill="#F6F1FE" height="101.6641" id="ComparacionProducto" rx="5" ry="5" style="stroke:#6D28D9;stroke-width:0.5;" width="174.4683" x="408" y="227.625"/><rect fill="#EDE4FB" height="40.2656" rx="5" ry="5" style="stroke:#EDE4FB;stroke-width:0.5;" width="174.4683" x="408" y="227.625"/><rect fill="#EDE4FB" height="5" style="stroke:#EDE4FB;stroke-width:0.5;" width="174.4683" x="408" y="262.8906"/><rect codeLine="53" fill="none" height="101.6641" id="ComparacionProducto" rx="5" ry="5" style="stroke:#6D28D9;stroke-width:0.5;" width="174.4683" x="408" y="227.625"/><ellipse cx="422.2094" cy="247.7578" fill="#ADD1B2" rx="10" ry="10" style="stroke:#181818;stroke-width:1;"/><path d="M424.0688,251.9922 Q423.6313,252.2109 423.1313,252.3203 Q422.6469,252.4453 422.1156,252.4453 Q420.1938,252.4453 419.1781,251.1797 Q418.1781,249.9141 418.1781,247.5234 Q418.1781,245.1328 419.1781,243.8672 Q420.1938,242.6016 422.1156,242.6016 Q422.6469,242.6016 423.1469,242.7266 Q423.6469,242.8359 424.0688,243.0703 L424.0688,245.1484 Q423.5844,244.7109 423.1313,244.5078 Q422.6781,244.2891 422.1938,244.2891 Q421.1781,244.2891 420.6469,245.1172 Q420.1156,245.9297 420.1156,247.5234 Q420.1156,249.1328 420.6469,249.9453 Q421.1781,250.7578 422.1938,250.7578 Q422.6781,250.7578 423.1313,250.5547 Q423.5844,250.3516 424.0688,249.8984 L424.0688,251.9922 Z " fill="#111111"/><text fill="#6D28D9" font-family="Arial" font-size="13" font-style="italic" lengthAdjust="spacing" textLength="81.7705" x="466.3721" y="244.6919">&#171;propuesto&#187;</text><text fill="#111111" font-family="Arial" font-size="13" lengthAdjust="spacing" textLength="144.0029" x="435.2559" y="259.8247">ComparacionProducto</text><line style="stroke:#6D28D9;stroke-width:0.5;" x1="409" x2="581.4683" y1="267.8906" y2="267.8906"/><text fill="#111111" font-family="Arial" font-size="13" lengthAdjust="spacing" textLength="57.2559" x="414" y="283.9575">-id : long</text><text fill="#111111" font-family="Arial" font-size="13" lengthAdjust="spacing" textLength="147.5894" x="414" y="299.0903">-fechaHora : DateTime</text><text fill="#111111" font-family="Arial" font-size="13" lengthAdjust="spacing" textLength="162.4683" x="414" y="314.2231">-idSesionAnonima : UUID</text><line style="stroke:#6D28D9;stroke-width:0.5;" x1="409" x2="581.4683" y1="321.2891" y2="321.2891"/></g><!--class ServicioCatalogo--><g id="elem_ServicioCatalogo"><rect codeLine="58" fill="#FFFFFF" height="91.3984" id="ServicioCatalogo" rx="5" ry="5" style="stroke:#111111;stroke-width:0.5;" width="403.0283" x="617.5" y="233.125"/><rect fill="#F2F2F4" height="30" rx="5" ry="5" style="stroke:#F2F2F4;stroke-width:0.5;" width="403.0283" x="617.5" y="233.125"/><rect fill="#F2F2F4" height="5" style="stroke:#F2F2F4;stroke-width:0.5;" width="403.0283" x="617.5" y="258.125"/><rect codeLine="58" fill="none" height="91.3984" id="ServicioCatalogo" rx="5" ry="5" style="stroke:#111111;stroke-width:0.5;" width="403.0283" x="617.5" y="233.125"/><ellipse cx="760.2688" cy="248.125" fill="#ADD1B2" rx="10" ry="10" style="stroke:#181818;stroke-width:1;"/><path d="M762.1282,252.3594 Q761.6907,252.5781 761.1907,252.6875 Q760.7063,252.8125 760.175,252.8125 Q758.2532,252.8125 757.2375,251.5469 Q756.2375,250.2813 756.2375,247.8906 Q756.2375,245.5 757.2375,244.2344 Q758.2532,242.9688 760.175,242.9688 Q760.7063,242.9688 761.2063,243.0938 Q761.7063,243.2031 762.1282,243.4375 L762.1282,245.5156 Q761.6438,245.0781 761.1907,244.875 Q760.7375,244.6563 760.2532,244.6563 Q759.2375,244.6563 758.7063,245.4844 Q758.175,246.2969 758.175,247.8906 Q758.175,249.5 758.7063,250.3125 Q759.2375,251.125 760.2532,251.125 Q760.7375,251.125 761.1907,250.9219 Q761.6438,250.7188 762.1282,250.2656 L762.1282,252.3594 Z " fill="#111111"/><text fill="#111111" font-family="Arial" font-size="13" lengthAdjust="spacing" textLength="109.4907" x="779.2688" y="252.6255">ServicioCatalogo</text><line style="stroke:#111111;stroke-width:0.5;" x1="618.5" x2="1019.5283" y1="263.125" y2="263.125"/><line style="stroke:#111111;stroke-width:0.5;" x1="618.5" x2="1019.5283" y1="271.125" y2="271.125"/><text fill="#111111" font-family="Arial" font-size="13" lengthAdjust="spacing" textLength="265.021" x="623.5" y="287.1919">+buscar(texto : String) : List&lt;Producto&gt;</text><text fill="#111111" font-family="Arial" font-size="13" lengthAdjust="spacing" textLength="391.0283" x="623.5" y="302.3247">+filtrar(categoria : String, atributos : Map) : List&lt;Producto&gt;</text><text fill="#111111" font-family="Arial" font-size="13" lengthAdjust="spacing" textLength="255.1504" x="623.5" y="317.4575">+obtenerFicha(slug : String) : Producto</text></g><!--class ServicioComparador--><g id="elem_ServicioComparador"><rect codeLine="63" fill="#FFFFFF" height="106.5313" id="ServicioComparador" rx="5" ry="5" style="stroke:#111111;stroke-width:0.5;" width="251.6304" x="258" y="46.625"/><rect fill="#F2F2F4" height="30" rx="5" ry="5" style="stroke:#F2F2F4;stroke-width:0.5;" width="251.6304" x="258" y="46.625"/><rect fill="#F2F2F4" height="5" style="stroke:#F2F2F4;stroke-width:0.5;" width="251.6304" x="258" y="71.625"/><rect codeLine="63" fill="none" height="106.5313" id="ServicioComparador" rx="5" ry="5" style="stroke:#111111;stroke-width:0.5;" width="251.6304" x="258" y="46.625"/><ellipse cx="313.6218" cy="61.625" fill="#ADD1B2" rx="10" ry="10" style="stroke:#181818;stroke-width:1;"/><path d="M315.4812,65.8594 Q315.0437,66.0781 314.5437,66.1875 Q314.0593,66.3125 313.5281,66.3125 Q311.6062,66.3125 310.5906,65.0469 Q309.5906,63.7813 309.5906,61.3906 Q309.5906,59 310.5906,57.7344 Q311.6062,56.4688 313.5281,56.4688 Q314.0593,56.4688 314.5593,56.5938 Q315.0593,56.7031 315.4812,56.9375 L315.4812,59.0156 Q314.9968,58.5781 314.5437,58.375 Q314.0906,58.1563 313.6062,58.1563 Q312.5906,58.1563 312.0593,58.9844 Q311.5281,59.7969 311.5281,61.3906 Q311.5281,63 312.0593,63.8125 Q312.5906,64.625 313.6062,64.625 Q314.0906,64.625 314.5437,64.4219 Q314.9968,64.2188 315.4812,63.7656 L315.4812,65.8594 Z " fill="#111111"/><text fill="#111111" font-family="Arial" font-size="13" lengthAdjust="spacing" textLength="132.3867" x="332.6218" y="66.1255">ServicioComparador</text><line style="stroke:#111111;stroke-width:0.5;" x1="259" x2="508.6304" y1="76.625" y2="76.625"/><text fill="#111111" font-family="Arial" font-size="13" lengthAdjust="spacing" text-decoration="underline" textLength="185.561" x="264" y="92.6919">+MAX_PRODUCTOS : int = 3</text><line style="stroke:#111111;stroke-width:0.5;" x1="259" x2="508.6304" y1="99.7578" y2="99.7578"/><text fill="#111111" font-family="Arial" font-size="13" lengthAdjust="spacing" textLength="215.5029" x="264" y="115.8247">+agregar(p : Producto) : boolean</text><text fill="#111111" font-family="Arial" font-size="13" lengthAdjust="spacing" textLength="178.4263" x="264" y="130.9575">+quitar(p : Producto) : void</text><text fill="#111111" font-family="Arial" font-size="13" lengthAdjust="spacing" textLength="239.6304" x="264" y="146.0903">+obtenerTabla() : TablaComparativa</text></g><!--link Categoria to Categoria--><g id="link_Categoria_Categoria"><path codeLine="70" d="M438.3,784.535 C458.93,787.465 473,793.995 473,804.125 C473,814.255 458.93,820.785 438.3,823.715 " fill="none" id="Categoria-Categoria" style="stroke:#3A3A3A;stroke-width:1;"/><polygon fill="#3A3A3A" points="477.5625,808.4876,478.8727,800.9928,474.2172,801.654,477.5625,808.4876" style="stroke:#3A3A3A;stroke-width:1;"/><text fill="#3A3A3A" font-family="Arial" font-size="11" lengthAdjust="spacing" textLength="49.2422" x="490" y="808.3354">padre de</text><text fill="#3A3A3A" font-family="Arial" font-size="11" lengthAdjust="spacing" textLength="20.9902" x="445.6758" y="781.4519">0..1</text><text fill="#3A3A3A" font-family="Arial" font-size="11" lengthAdjust="spacing" textLength="19.4917" x="445.6371" y="822.6522">0..*</text></g><!--link Producto to Categoria--><g id="link_Producto_Categoria"><path codeLine="71" d="M412.65,646.815 C391.96,677.145 370.48,708.625 352.26,735.315 " fill="none" id="Producto-Categoria" style="stroke:#3A3A3A;stroke-width:1;"/><polygon fill="#3A3A3A" points="391.7454,687.3314,397.7661,682.6795,393.8819,680.0291,391.7454,687.3314" style="stroke:#3A3A3A;stroke-width:1;"/><text fill="#3A3A3A" font-family="Arial" font-size="11" lengthAdjust="spacing" textLength="75.2974" x="402" y="687.8354">clasificado en</text><text fill="#3A3A3A" font-family="Arial" font-size="11" lengthAdjust="spacing" textLength="19.4917" x="388.3427" y="664.4387">0..*</text><text fill="#3A3A3A" font-family="Arial" font-size="11" lengthAdjust="spacing" textLength="19.4917" x="337.5677" y="724.9338">1..*</text></g><!--reverse link Producto to EspecificacionTecnica--><g id="link_Producto_EspecificacionTecnica"><path codeLine="72" d="M590.5415,656.4955 C608.7015,681.2855 620.34,697.155 637.26,720.245 " fill="none" id="Producto-backto-EspecificacionTecnica" style="stroke:#3A3A3A;stroke-width:1;"/><polygon fill="#3A3A3A" points="583.45,646.815,583.7689,654.019,590.5415,656.4955,590.2225,649.2914,583.45,646.815" style="stroke:#3A3A3A;stroke-width:1;"/><text fill="#3A3A3A" font-family="Arial" font-size="11" lengthAdjust="spacing" textLength="6.9985" x="582.4075" y="664.4387">1</text><text fill="#3A3A3A" font-family="Arial" font-size="11" lengthAdjust="spacing" textLength="19.4917" x="611.5965" y="709.9241">0..*</text></g><!--reverse link Producto to ImagenProducto--><g id="link_Producto_ImagenProducto"><path codeLine="73" d="M700.7443,630.7521 C753.9743,659.7921 800.37,687.065 851,720.625 C861.37,727.505 872,735.145 882.31,742.935 " fill="none" id="Producto-backto-ImagenProducto" style="stroke:#3A3A3A;stroke-width:1;"/><polygon fill="#3A3A3A" points="690.21,625.005,693.5615,631.39,700.7443,630.7521,697.3928,624.3671,690.21,625.005" style="stroke:#3A3A3A;stroke-width:1;"/><text fill="#3A3A3A" font-family="Arial" font-size="11" lengthAdjust="spacing" textLength="6.9985" x="698.5847" y="627.1988">1</text><text fill="#3A3A3A" font-family="Arial" font-size="11" lengthAdjust="spacing" textLength="19.4917" x="852.7803" y="732.6098">0..*</text></g><!--link ComparacionProducto to Producto--><g id="link_ComparacionProducto_Producto"><path codeLine="74" d="M495,329.695 C495,351.205 495,377.375 495,403.435 " fill="none" id="ComparacionProducto-Producto" style="stroke:#3A3A3A;stroke-width:1;"/><polygon fill="#3A3A3A" points="499,371.0273,501.3511,363.7913,496.6489,363.7913,499,371.0273" style="stroke:#3A3A3A;stroke-width:1;"/><text fill="#3A3A3A" font-family="Arial" font-size="11" lengthAdjust="spacing" textLength="48.4795" x="507" y="370.8354">compara</text><text fill="#3A3A3A" font-family="Arial" font-size="11" lengthAdjust="spacing" textLength="19.4917" x="474.725" y="347.6509">0..*</text><text fill="#3A3A3A" font-family="Arial" font-size="11" lengthAdjust="spacing" textLength="20.9902" x="474.3481" y="393.1025">2..3</text></g><!--link Producto to EstadoProducto--><g id="link_Producto_EstadoProducto"><path codeLine="75" d="M299.82,626.515 C251.23,654.605 200.37,686.775 156,720.625 C141.3,731.835 130.7911,741.2509 117.9011,754.2109 " fill="none" id="Producto-to-EstadoProducto" style="stroke:#3A3A3A;stroke-width:1;stroke-dasharray:7.0,7.0;"/><polygon fill="#3A3A3A" points="113.67,758.465,122.8528,754.9046,117.1959,754.9199,117.1806,749.2631,113.67,758.465" style="stroke:#3A3A3A;stroke-width:1;"/></g><!--link EspecificacionTecnica to EstadoVerificacion--><g id="link_EspecificacionTecnica_EstadoVerificacion"><path codeLine="76" d="M698,887.715 C698,908.885 698,924.615 698,942.205 " fill="none" id="EspecificacionTecnica-to-EstadoVerificacion" style="stroke:#3A3A3A;stroke-width:1;stroke-dasharray:7.0,7.0;"/><polygon fill="#3A3A3A" points="698,948.205,702,939.205,698,943.205,694,939.205,698,948.205" style="stroke:#3A3A3A;stroke-width:1;"/></g><!--link ServicioCatalogo to Producto--><g id="link_ServicioCatalogo_Producto"><path codeLine="77" d="M759.95,324.185 C730.2,346.635 697.3289,371.4403 659.8089,399.7603 " fill="none" id="ServicioCatalogo-to-Producto" style="stroke:#3A3A3A;stroke-width:1;stroke-dasharray:7.0,7.0;"/><polygon fill="#3A3A3A" points="655.02,403.375,664.6132,401.1456,659.0108,400.3628,659.7936,394.7603,655.02,403.375" style="stroke:#3A3A3A;stroke-width:1;"/></g><!--link ServicioComparador to Producto--><g id="link_ServicioComparador_Producto"><path codeLine="78" d="M378.53,153.835 C375.27,200.795 374.35,270.955 390,329.625 C396.65,354.555 404.3876,374.438 416.1176,398.128 " fill="none" id="ServicioComparador-to-Producto" style="stroke:#3A3A3A;stroke-width:1;stroke-dasharray:7.0,7.0;"/><polygon fill="#3A3A3A" points="418.78,403.505,418.3711,393.6646,416.5614,399.0242,411.2018,397.2145,418.78,403.505" style="stroke:#3A3A3A;stroke-width:1;"/></g><!--link ServicioComparador to ComparacionProducto--><g id="link_ServicioComparador_ComparacionProducto"><path codeLine="79" d="M417.3,154.085 C431.93,177.335 445.8149,199.4265 460.2349,222.3465 " fill="none" id="ServicioComparador-to-ComparacionProducto" style="stroke:#3A3A3A;stroke-width:1;stroke-dasharray:7.0,7.0;"/><polygon fill="#3A3A3A" points="463.43,227.425,462.023,217.6772,460.7674,223.1929,455.2517,221.9373,463.43,227.425" style="stroke:#3A3A3A;stroke-width:1;"/><polygon fill="#3A3A3A" points="449.1297,194.4133,447.2673,187.0363,443.2869,189.5399,449.1297,194.4133" style="stroke:#3A3A3A;stroke-width:1;"/><text fill="#3A3A3A" font-family="Arial" font-size="11" lengthAdjust="spacing" textLength="42.6357" x="455" y="194.8354">registra</text></g><!--SRC=[fLNDQjj04BxxARO-jKbjakPKaneSow66n3R-2OLImagQk0EhNMLtPGeXq8Ve2_GHUkgzUPC-IMTNbYpPIYdqjfhVRsQ-6Rr06Oai1dOBng9GNSmIqR9e1R2WS_AM_Vh90kHhpHFEo2mIt81nhnWDFFrGxFVNRsp6xpEmm8RSFdqNQgrQBP1PmaR6ybZDj8gpo2hsq6BiOZgV3uBfd9wprSNLU4WVz0v6Y-5qiXnFLkxxiUf-0nhlCE8HAkb3t8pcuyl2SJQQ1EFHP3aY9mVEE12mLXgvD-umZ5cFeRJ-Gwear422XTKerrvcHBQkIs8maSRKPwmeZfaABKZGHKNcvIlINw6nvuMex-qiabdTAbHA09Sbp5fNzb0cAWQXojJi8PD87Nxy_n8w37nJILOVJk5aUPIh2xnEVWVHPpxBGb6CeSS2wl8I4_3bfhbA-q8t2cClTH2Kj2YpVKsQGGpRUDf0hJ-LDezC2b4vUwXqkwvPGYJfsQ_whhIuH4BjVRRb5wrlz6wQ0oU_CBEgti4D5qhlXlFnfDiz_UGrDAQOnuqgEEHohu7WURipa1OQmoWTWomH7kTORj1WAA2fr772ro3_nhLCYtfv5hvODH0MjEGMDtl5rm6ukcQaYp3bee7aGvMaNFlAIWpdvwbMn013ozAl8X9gcyFJxRtIlCupPxO0Gx46KabCd7gr6WTbjWNe3L8kkW3SNI4V_9Y5cN7Sz7MLnJopk7Seh2RZg3mYXSFhaWs6PDSyVIR2bdyv-MfxwHpATJl0d7Sg9cRbg1-86nQZHtOz-70xcq-3rN0vNUITP-_OcJUYmmnhWfjMGkylqts6ji6aNCOju2KFHRuj_hN5GmJWXBMrEwfjHyOswtJywwXTkRSzblAOJXFz7VgjSjvRC-TmUk3Wck39JpU7U5LreoH7kooDE_kiTPtshIOQLc2zwNRFshk3JAXo-ogSRhU_Vp6RpyZEiBRN1znqTcMe1XRyYxwfhXuZIX0j7Vm_]--></g></svg>