<svg xmlns="http://www.w3.org/2000/svg" xmlns:xlink="http://www.w3.org/1999/xlink" contentStyleType="text/css" height="500px" preserveAspectRatio="none" style="width:671px;height:500px;background:#FFFFFF;" version="1.1" viewBox="0 0 671 500" width="671px" zoomAndPan="magnify"><title>D-11 &#183; Diagrama de objetos &#8212; Consulta iniciada desde el comparador</title><defs/><g><text fill="#111111" font-family="Arial" font-size="16" font-weight="bold" lengthAdjust="spacing" textLength="624.625" x="16.3936" y="24.8516">D-11 &#183; Diagrama de objetos &#8212; Consulta iniciada desde el comparador</text><g id="elem_cmp1"><rect fill="#FFFFFF" height="57.3984" rx="5" ry="5" style="stroke:#111111;stroke-width:0.5;" width="249.3008" x="27.5" y="62.125"/><text fill="#111111" font-family="Arial" font-size="13" lengthAdjust="spacing" textLength="192.9814" x="55.6597" y="76.1919">cmp1 : ComparacionProducto</text><line style="stroke:#111111;stroke-width:0.5;" x1="28.5" x2="275.8008" y1="81.2578" y2="81.2578"/><text fill="#111111" font-family="Arial" font-size="13" lengthAdjust="spacing" textLength="203.271" x="33.5" y="97.3247">fechaHora = 2026-09-29 18:40</text><text fill="#111111" font-family="Arial" font-size="13" lengthAdjust="spacing" textLength="237.3008" x="33.5" y="112.4575">idSesionAnonima = &#171;uuid aleatorio&#187;</text></g><g id="elem_p1"><rect fill="#FFFFFF" height="57.3984" rx="5" ry="5" style="stroke:#111111;stroke-width:0.5;" width="157.6787" x="73" y="194.625"/><text fill="#111111" font-family="Arial" font-size="13" lengthAdjust="spacing" textLength="86.9946" x="108.342" y="208.6919">p1 : Producto</text><line style="stroke:#111111;stroke-width:0.5;" x1="74" x2="229.6787" y1="213.7578" y2="213.7578"/><text fill="#111111" font-family="Arial" font-size="13" lengthAdjust="spacing" textLength="145.6787" x="79" y="229.8247">modelo = "FR 1500.1"</text><text fill="#111111" font-family="Arial" font-size="13" lengthAdjust="spacing" textLength="138.7598" x="79" y="244.9575">estado = PUBLICADO</text></g><g id="elem_p2"><rect fill="#FFFFFF" height="57.3984" rx="5" ry="5" style="stroke:#111111;stroke-width:0.5;" width="157.6787" x="291" y="194.625"/><text fill="#111111" font-family="Arial" font-size="13" lengthAdjust="spacing" textLength="86.9946" x="326.342" y="208.6919">p2 : Producto</text><line style="stroke:#111111;stroke-width:0.5;" x1="292" x2="447.6787" y1="213.7578" y2="213.7578"/><text fill="#111111" font-family="Arial" font-size="13" lengthAdjust="spacing" textLength="145.6787" x="297" y="229.8247">modelo = "FR 2000.1"</text><text fill="#111111" font-family="Arial" font-size="13" lengthAdjust="spacing" textLength="138.7598" x="297" y="244.9575">estado = PUBLICADO</text></g><g id="elem_amp"><rect fill="#FFFFFF" height="42.2656" rx="5" ry="5" style="stroke:#111111;stroke-width:0.5;" width="190.2231" x="275" y="327.125"/><text fill="#111111" font-family="Arial" font-size="13" lengthAdjust="spacing" textLength="104.7935" x="317.7148" y="341.1919">amp : Categoria</text><line style="stroke:#111111;stroke-width:0.5;" x1="276" x2="464.2231" y1="346.2578" y2="346.2578"/><text fill="#111111" font-family="Arial" font-size="13" lengthAdjust="spacing" textLength="178.2231" x="281" y="362.3247">nombre = "Amplificadores"</text></g><g id="elem_e1"><rect fill="#FFFFFF" height="72.5313" rx="5" ry="5" style="stroke:#111111;stroke-width:0.5;" width="225.0146" x="14.5" y="311.625"/><text fill="#111111" font-family="Arial" font-size="13" lengthAdjust="spacing" textLength="171.2153" x="41.3997" y="325.6919">e1 : EspecificacionTecnica</text><line style="stroke:#111111;stroke-width:0.5;" x1="15.5" x2="238.5146" y1="330.7578" y2="330.7578"/><text fill="#111111" font-family="Arial" font-size="13" lengthAdjust="spacing" textLength="171.1646" x="20.5" y="346.8247">atributo = "Potencia RMS"</text><text fill="#111111" font-family="Arial" font-size="13" lengthAdjust="spacing" textLength="75.4292" x="20.5" y="361.9575">valor = null</text><text fill="#111111" font-family="Arial" font-size="13" lengthAdjust="spacing" textLength="213.0146" x="20.5" y="377.0903">estadoVerificacion = PENDIENTE</text></g><g id="elem_k1"><rect fill="#FFFFFF" height="87.6641" rx="5" ry="5" style="stroke:#111111;stroke-width:0.5;" width="352.4121" x="312" y="46.625"/><text fill="#111111" font-family="Arial" font-size="13" lengthAdjust="spacing" textLength="150.7759" x="412.8181" y="60.6919">k1 : ConsultaComercial</text><line style="stroke:#111111;stroke-width:0.5;" x1="313" x2="663.4121" y1="65.7578" y2="65.7578"/><text fill="#111111" font-family="Arial" font-size="13" lengthAdjust="spacing" textLength="155.0161" x="318" y="81.8247">origen = COMPARADOR</text><text fill="#111111" font-family="Arial" font-size="13" lengthAdjust="spacing" textLength="137.2109" x="318" y="96.9575">intencion = COTIZAR</text><text fill="#111111" font-family="Arial" font-size="13" lengthAdjust="spacing" textLength="147.3735" x="318" y="112.0903">estado = REGISTRADA</text><text fill="#111111" font-family="Arial" font-size="13" lengthAdjust="spacing" textLength="340.4121" x="318" y="127.2231">mensaje = "&#8230;quiero cotizar el modelo FR 2000.1&#8230;"</text></g><g id="elem_GMN14"><path d="M6,449.625 L6,488.0391 A5,5 0 0 0 11,493.0391 L242.7681,493.0391 A5,5 0 0 0 247.7681,488.0391 L247.7681,454.625 L237.7681,444.625 L131,444.625 L127,384.675 L123,444.625 L11,444.625 A5,5 0 0 0 6,449.625 " fill="#F7F7F8" style="stroke:#A0A4AB;stroke-width:0.5;"/><path d="M237.7681,444.625 L237.7681,452.125 A2.5,2.5 0 0 0 240.2681,454.625 L247.7681,454.625 L237.7681,444.625 " fill="#F7F7F8" style="stroke:#A0A4AB;stroke-width:0.5;"/><text fill="#111111" font-family="Arial" font-size="11" lengthAdjust="spacing" textLength="218.7539" x="12" y="459.8354">Ejemplo de RN-03: sin fuente verificada</text><text fill="#111111" font-family="Arial" font-size="11" lengthAdjust="spacing" textLength="220.7681" x="12" y="472.6401">no se registra un valor; la ficha muestra</text><text fill="#111111" font-family="Arial" font-size="11" lengthAdjust="spacing" textLength="156.3096" x="12" y="485.4448">&#171;Pendiente de verificaci&#243;n&#187;.</text></g><!--link cmp1 to p1--><g id="link_cmp1_p1"><path codeLine="31" d="M152,119.305 C152,141.445 152,172.355 152,194.485 " fill="none" id="cmp1-p1" style="stroke:#3A3A3A;stroke-width:1;"/></g><!--link cmp1 to p2--><g id="link_cmp1_p2"><path codeLine="32" d="M197.97,119.145 C234.94,141.275 286.66,172.235 323.72,194.425 " fill="none" id="cmp1-p2" style="stroke:#3A3A3A;stroke-width:1;"/></g><!--link p1 to amp--><g id="link_p1_amp"><path codeLine="33" d="M200.92,251.725 C241.47,274.605 298.15,306.585 334.47,327.075 " fill="none" id="p1-amp" style="stroke:#3A3A3A;stroke-width:1;"/></g><!--link p2 to amp--><g id="link_p2_amp"><path codeLine="34" d="M370,251.725 C370,274.535 370,306.385 370,326.885 " fill="none" id="p2-amp" style="stroke:#3A3A3A;stroke-width:1;"/></g><!--reverse link p1 to e1--><g id="link_p1_e1"><path codeLine="35" d="M144.0006,263.4847 C140.4306,281.0547 138.16,292.225 134.3,311.205 " fill="none" id="p1-backto-e1" style="stroke:#3A3A3A;stroke-width:1;"/><polygon fill="#3A3A3A" points="146.39,251.725,141.2754,256.8084,144.0006,263.4847,149.1152,258.4013,146.39,251.725" style="stroke:#3A3A3A;stroke-width:1;"/></g><!--link k1 to p2--><g id="link_k1_p2"><path codeLine="36" d="M449.04,134.715 C431.31,154.315 410.85,176.945 395.19,194.265 " fill="none" id="k1-p2" style="stroke:#3A3A3A;stroke-width:1;"/></g><!--SRC=[ZL8zRnD14EtlLmmkaMpT7HyYHXI7VO0babXdGq63rdjZP-sz7REtcmA4b1_1Rw19IK6HploJ_19cznp7A0tTQj-RDpFlpIDbfFOrmcTidT8qKBxHYLDE8upxMGQxtp1MOcL58u1fj5YZenPkhtx0Y4phjHEWZ99Ar87GCWSrI6gsmegQR9A44kcW9vjj1aEkYf1KPAQMQYyTzK2q4E5l2S0IvOLuHrR0AyZJ_7a_FUdd9v2z63vD6LRr35ikBWmPrGJIxjfxLOFGA1nPHRkRvFkXQ-pvJwDzcuPgrCJblJSLPC_IT93r-9jjuB7vU_hXzVl9g1YV7ulb3yJoXs9v-bzYeja6EuJ35Kyjebpu2tg6ceN5e5SqMwsMIWOliUqTrMFOh6otA2CU39sZv2WwAUpM5CwgXNTnjYavD9mKLAUpCDwbq6GPC5xhmxGVqHxqmkJbsNXIditBeywRBiSkVSuJBOlgs7NJTUM5LXZAH-UdqwBYnQiGdOdzgGFcaqz5TMnILRwTpEPCBeAZQ5gnZXRSNltyuXLQuhDowgkmuSBsZX_iPb8m9ubdrEzpolVFFEaUx6x2WTszCdZCJyoIpHtDi46m8EUe0Le62A1S8qT0uVYhitxwP0YjCh3qoCl0vTwiMiJGe4Mmk5Aju-lrfZFu9MW1JBeGq7WC47DtrrCqjOeYzRsEL7z-cTtD864GmZH_0G00]--></g></svg>