<svg xmlns="http://www.w3.org/2000/svg" xmlns:xlink="http://www.w3.org/1999/xlink" contentStyleType="text/css" height="976px" preserveAspectRatio="none" style="width:1198px;height:976px;background:#FFFFFF;" version="1.1" viewBox="0 0 1198 976" width="1198px" zoomAndPan="magnify"><title>D-17 &#183; Actividades &#8212; Administraci&#243;n del cat&#225;logo</title><defs/><g><text fill="#111111" font-family="Arial" font-size="16" font-weight="bold" lengthAdjust="spacing" textLength="444.1953" x="375.5753" y="34.8516">D-17 &#183; Actividades &#8212; Administraci&#243;n del cat&#225;logo</text><rect fill="none" height="15.1328" style="stroke:none;stroke-width:1;" width="1165.3459" x="15" y="51.1909"/><ellipse cx="242.2676" cy="81.3237" fill="#111111" rx="10" ry="10" style="stroke:#222222;stroke-width:1;"/><rect fill="#FFFFFF" height="35.1328" rx="5" ry="5" style="stroke:#111111;stroke-width:0.5;" width="176.2031" x="154.166" y="111.3237"/><text fill="#111111" font-family="Arial" font-size="13" lengthAdjust="spacing" textLength="156.2031" x="164.166" y="133.3906">Inicia sesi&#243;n en el panel</text><rect fill="#FFFFFF" height="50.2656" rx="5" ry="5" style="stroke:#111111;stroke-width:0.5;" width="213.667" x="135.4341" y="166.4565"/><text fill="#111111" font-family="Arial" font-size="13" lengthAdjust="spacing" textLength="157.644" x="145.4341" y="188.5234">Crea o edita el producto</text><text fill="#111111" font-family="Arial" font-size="13" lengthAdjust="spacing" textLength="193.667" x="145.4341" y="203.6563">(modelo, nombre, categor&#237;as)</text><rect fill="#FFFFFF" height="35.1328" rx="5" ry="5" style="stroke:#111111;stroke-width:0.5;" width="266.397" x="109.0691" y="236.7222"/><text fill="#111111" font-family="Arial" font-size="13" lengthAdjust="spacing" textLength="246.397" x="119.0691" y="258.7891">Carga im&#225;genes con texto alternativo</text><rect fill="#FFFFFF" height="35.1328" rx="5" ry="5" style="stroke:#111111;stroke-width:0.5;" width="185.9531" x="149.291" y="335.855"/><text fill="#111111" font-family="Arial" font-size="13" lengthAdjust="spacing" textLength="165.9531" x="159.291" y="357.9219">Registra la especificaci&#243;n</text><polygon fill="#FFFFFF" points="160.1829,390.9878,324.3523,390.9878,336.3523,402.9878,324.3523,414.9878,160.1829,414.9878,148.1829,402.9878,160.1829,390.9878" style="stroke:#111111;stroke-width:0.5;"/><text fill="#111111" font-family="Arial" font-size="13" lengthAdjust="spacing" textLength="164.1694" x="160.1829" y="407.4883">&#191;Tiene fuente verificada?</text><text fill="#3A3A3A" font-family="Arial" font-size="11" lengthAdjust="spacing" textLength="8.7871" x="139.3958" y="400.3936">s&#237;</text><text fill="#3A3A3A" font-family="Arial" font-size="11" lengthAdjust="spacing" textLength="13.7017" x="336.3523" y="400.3936">no</text><rect fill="#FFFFFF" height="35.1328" rx="5" ry="5" style="stroke:#111111;stroke-width:0.5;" width="216.041" x="21" y="424.9878"/><text fill="#111111" font-family="Arial" font-size="13" lengthAdjust="spacing" textLength="196.041" x="31" y="447.0547">Ingresa valor, unidad y fuente</text><rect fill="#FFFFFF" height="35.1328" rx="5" ry="5" style="stroke:#111111;stroke-width:0.5;" width="196.9473" x="257.041" y="424.9878"/><text fill="#111111" font-family="Arial" font-size="13" lengthAdjust="spacing" textLength="176.9473" x="267.041" y="447.0547">Marca PENDIENTE sin valor</text><polygon fill="#FFFFFF" points="242.2676,466.1206,254.2676,478.1206,242.2676,490.1206,230.2676,478.1206,242.2676,466.1206" style="stroke:#111111;stroke-width:0.5;"/><polygon fill="#FFFFFF" points="242.2676,291.855,254.2676,303.855,242.2676,315.855,230.2676,303.855,242.2676,291.855" style="stroke:#111111;stroke-width:0.5;"/><polygon fill="#FFFFFF" points="166.9209,510.1206,317.6143,510.1206,329.6143,522.1206,317.6143,534.1206,166.9209,534.1206,154.9209,522.1206,166.9209,510.1206" style="stroke:#111111;stroke-width:0.5;"/><text fill="#3A3A3A" font-family="Arial" font-size="11" lengthAdjust="spacing" textLength="13.7017" x="246.2676" y="544.3311">no</text><text fill="#111111" font-family="Arial" font-size="13" lengthAdjust="spacing" textLength="150.6934" x="166.9209" y="526.6211">&#191;M&#225;s especificaciones?</text><text fill="#3A3A3A" font-family="Arial" font-size="11" lengthAdjust="spacing" textLength="8.7871" x="329.6143" y="519.5264">s&#237;</text><rect fill="#FFFFFF" height="35.1328" rx="5" ry="5" style="stroke:#111111;stroke-width:0.5;" width="123.8096" x="180.3628" y="565.8311"/><text fill="#111111" font-family="Arial" font-size="13" lengthAdjust="spacing" textLength="103.8096" x="190.3628" y="587.8979">Solicita publicar</text><rect fill="#FFFFFF" height="35.1328" rx="5" ry="5" style="stroke:#111111;stroke-width:0.5;" width="187.9653" x="148.2849" y="887.3623"/><text fill="#111111" font-family="Arial" font-size="13" lengthAdjust="spacing" textLength="167.9653" x="158.2849" y="909.4292">Verifica la ficha publicada</text><ellipse cx="242.2676" cy="953.4951" fill="none" rx="11" ry="11" style="stroke:#222222;stroke-width:1;"/><ellipse cx="242.2676" cy="953.4951" fill="#222222" rx="6" ry="6" style="stroke:#222222;stroke-width:1;"/><line style="stroke:#8A8F98;stroke-width:1.5;" x1="15" x2="15" y1="51.1909" y2="964.4951"/><rect fill="#FFFFFF" height="35.1328" rx="5" ry="5" style="stroke:#111111;stroke-width:0.5;" width="249.9692" x="661.2139" y="620.9639"/><text fill="#111111" font-family="Arial" font-size="13" lengthAdjust="spacing" textLength="229.9692" x="671.2139" y="643.0308">Valida campos obligatorios (RN-02)</text><polygon fill="#FFFFFF" points="759.1543,676.0967,813.2427,676.0967,825.2427,688.0967,813.2427,700.0967,759.1543,700.0967,747.1543,688.0967,759.1543,676.0967" style="stroke:#111111;stroke-width:0.5;"/><text fill="#111111" font-family="Arial" font-size="13" lengthAdjust="spacing" textLength="54.0884" x="759.1543" y="692.5972">&#191;V&#225;lido?</text><text fill="#3A3A3A" font-family="Arial" font-size="11" lengthAdjust="spacing" textLength="13.7017" x="733.4526" y="685.5024">no</text><text fill="#3A3A3A" font-family="Arial" font-size="11" lengthAdjust="spacing" textLength="8.7871" x="825.2427" y="685.5024">s&#237;</text><rect fill="#FFFFFF" height="50.2656" rx="5" ry="5" style="stroke:#111111;stroke-width:0.5;" width="234.373" x="492.9883" y="710.0967"/><text fill="#111111" font-family="Arial" font-size="13" lengthAdjust="spacing" textLength="177.3218" x="502.9883" y="732.1636">Muestra errores por campo</text><text fill="#111111" font-family="Arial" font-size="13" lengthAdjust="spacing" textLength="214.373" x="502.9883" y="747.2964">y conserva el estado BORRADOR</text><ellipse cx="610.1748" cy="806.3623" fill="none" rx="11" ry="11" style="stroke:#222222;stroke-width:1;"/><ellipse cx="610.1748" cy="806.3623" fill="#222222" rx="6" ry="6" style="stroke:#222222;stroke-width:1;"/><rect fill="#FFFFFF" height="35.1328" rx="5" ry="5" style="stroke:#111111;stroke-width:0.5;" width="225.2451" x="849.5996" y="710.0967"/><text fill="#111111" font-family="Arial" font-size="13" lengthAdjust="spacing" textLength="205.2451" x="859.5996" y="732.1636">Cambia el estado a PUBLICADO</text><rect fill="#111111" height="6" rx="2.5" ry="2.5" style="stroke:#111111;stroke-width:1;" width="427.7217" x="747.3613" y="780.2295"/><rect fill="#FFFFFF" height="35.1328" rx="5" ry="5" style="stroke:#111111;stroke-width:0.5;" width="151.9614" x="761.3613" y="806.2295"/><text fill="#111111" font-family="Arial" font-size="13" lengthAdjust="spacing" textLength="131.9614" x="771.3613" y="828.2964">Registra la auditor&#237;a</text><rect fill="#FFFFFF" height="35.1328" rx="5" ry="5" style="stroke:#111111;stroke-width:0.5;" width="221.7603" x="941.3228" y="806.2295"/><text fill="#111111" font-family="Arial" font-size="13" lengthAdjust="spacing" textLength="201.7603" x="951.3228" y="828.2964">Actualiza el sitemap y la cach&#233;</text><rect fill="#111111" height="6" rx="2.5" ry="2.5" style="stroke:#111111;stroke-width:1;" width="427.7217" x="747.3613" y="861.3623"/><line style="stroke:#8A8F98;stroke-width:1.5;" x1="486.9883" x2="486.9883" y1="51.1909" y2="964.4951"/><line style="stroke:#8A8F98;stroke-width:1.5;" x1="1179.083" x2="1179.083" y1="51.1909" y2="964.4951"/><line style="stroke:#3A3A3A;stroke-width:1;" x1="242.2676" x2="242.2676" y1="91.3237" y2="111.3237"/><polygon fill="#3A3A3A" points="238.2676,101.3237,242.2676,111.3237,246.2676,101.3237,242.2676,105.3237" style="stroke:#3A3A3A;stroke-width:1;"/><line style="stroke:#3A3A3A;stroke-width:1;" x1="242.2676" x2="242.2676" y1="146.4565" y2="166.4565"/><polygon fill="#3A3A3A" points="238.2676,156.4565,242.2676,166.4565,246.2676,156.4565,242.2676,160.4565" style="stroke:#3A3A3A;stroke-width:1;"/><line style="stroke:#3A3A3A;stroke-width:1;" x1="242.2676" x2="242.2676" y1="216.7222" y2="236.7222"/><polygon fill="#3A3A3A" points="238.2676,226.7222,242.2676,236.7222,246.2676,226.7222,242.2676,230.7222" style="stroke:#3A3A3A;stroke-width:1;"/><line style="stroke:#3A3A3A;stroke-width:1;" x1="148.1829" x2="129.0205" y1="402.9878" y2="402.9878"/><line style="stroke:#3A3A3A;stroke-width:1;" x1="129.0205" x2="129.0205" y1="402.9878" y2="424.9878"/><polygon fill="#3A3A3A" points="125.0205,414.9878,129.0205,424.9878,133.0205,414.9878,129.0205,418.9878" style="stroke:#3A3A3A;stroke-width:1;"/><line style="stroke:#3A3A3A;stroke-width:1;" x1="336.3523" x2="355.5146" y1="402.9878" y2="402.9878"/><line style="stroke:#3A3A3A;stroke-width:1;" x1="355.5146" x2="355.5146" y1="402.9878" y2="424.9878"/><polygon fill="#3A3A3A" points="351.5146,414.9878,355.5146,424.9878,359.5146,414.9878,355.5146,418.9878" style="stroke:#3A3A3A;stroke-width:1;"/><line style="stroke:#3A3A3A;stroke-width:1;" x1="129.0205" x2="129.0205" y1="460.1206" y2="478.1206"/><line style="stroke:#3A3A3A;stroke-width:1;" x1="129.0205" x2="230.2676" y1="478.1206" y2="478.1206"/><polygon fill="#3A3A3A" points="220.2676,474.1206,230.2676,478.1206,220.2676,482.1206,224.2676,478.1206" style="stroke:#3A3A3A;stroke-width:1;"/><line style="stroke:#3A3A3A;stroke-width:1;" x1="355.5146" x2="355.5146" y1="460.1206" y2="478.1206"/><line style="stroke:#3A3A3A;stroke-width:1;" x1="355.5146" x2="254.2676" y1="478.1206" y2="478.1206"/><polygon fill="#3A3A3A" points="264.2676,474.1206,254.2676,478.1206,264.2676,482.1206,260.2676,478.1206" style="stroke:#3A3A3A;stroke-width:1;"/><line style="stroke:#3A3A3A;stroke-width:1;" x1="242.2676" x2="242.2676" y1="370.9878" y2="390.9878"/><polygon fill="#3A3A3A" points="238.2676,380.9878,242.2676,390.9878,246.2676,380.9878,242.2676,384.9878" style="stroke:#3A3A3A;stroke-width:1;"/><line style="stroke:#3A3A3A;stroke-width:1;" x1="242.2676" x2="242.2676" y1="315.855" y2="335.855"/><polygon fill="#3A3A3A" points="238.2676,325.855,242.2676,335.855,246.2676,325.855,242.2676,329.855" style="stroke:#3A3A3A;stroke-width:1;"/><line style="stroke:#3A3A3A;stroke-width:1;" x1="329.6143" x2="467.9883" y1="522.1206" y2="522.1206"/><polygon fill="#3A3A3A" points="463.9883,415.4878,467.9883,405.4878,471.9883,415.4878,467.9883,411.4878" style="stroke:#3A3A3A;stroke-width:1;"/><line style="stroke:#3A3A3A;stroke-width:1;" x1="467.9883" x2="467.9883" y1="303.855" y2="522.1206"/><line style="stroke:#3A3A3A;stroke-width:1;" x1="467.9883" x2="254.2676" y1="303.855" y2="303.855"/><polygon fill="#3A3A3A" points="264.2676,299.855,254.2676,303.855,264.2676,307.855,260.2676,303.855" style="stroke:#3A3A3A;stroke-width:1;"/><line style="stroke:#3A3A3A;stroke-width:1;" x1="242.2676" x2="242.2676" y1="490.1206" y2="510.1206"/><polygon fill="#3A3A3A" points="238.2676,500.1206,242.2676,510.1206,246.2676,500.1206,242.2676,504.1206" style="stroke:#3A3A3A;stroke-width:1;"/><line style="stroke:#3A3A3A;stroke-width:1;" x1="242.2676" x2="242.2676" y1="271.855" y2="291.855"/><polygon fill="#3A3A3A" points="238.2676,281.855,242.2676,291.855,246.2676,281.855,242.2676,285.855" style="stroke:#3A3A3A;stroke-width:1;"/><line style="stroke:#3A3A3A;stroke-width:1;" x1="242.2676" x2="242.2676" y1="534.1206" y2="565.8311"/><polygon fill="#3A3A3A" points="238.2676,555.8311,242.2676,565.8311,246.2676,555.8311,242.2676,559.8311" style="stroke:#3A3A3A;stroke-width:1;"/><line style="stroke:#3A3A3A;stroke-width:1;" x1="242.2676" x2="242.2676" y1="922.4951" y2="942.4951"/><polygon fill="#3A3A3A" points="238.2676,932.4951,242.2676,942.4951,246.2676,932.4951,242.2676,936.4951" style="stroke:#3A3A3A;stroke-width:1;"/><line style="stroke:#3A3A3A;stroke-width:1;" x1="610.1748" x2="610.1748" y1="760.3623" y2="795.3623"/><polygon fill="#3A3A3A" points="606.1748,785.3623,610.1748,795.3623,614.1748,785.3623,610.1748,789.3623" style="stroke:#3A3A3A;stroke-width:1;"/><line style="stroke:#3A3A3A;stroke-width:1;" x1="837.342" x2="837.342" y1="786.2295" y2="806.2295"/><polygon fill="#3A3A3A" points="833.342,796.2295,837.342,806.2295,841.342,796.2295,837.342,800.2295" style="stroke:#3A3A3A;stroke-width:1;"/><line style="stroke:#3A3A3A;stroke-width:1;" x1="1052.2029" x2="1052.2029" y1="786.2295" y2="806.2295"/><polygon fill="#3A3A3A" points="1048.2029,796.2295,1052.2029,806.2295,1056.2029,796.2295,1052.2029,800.2295" style="stroke:#3A3A3A;stroke-width:1;"/><line style="stroke:#3A3A3A;stroke-width:1;" x1="837.342" x2="837.342" y1="841.3623" y2="861.3623"/><polygon fill="#3A3A3A" points="833.342,851.3623,837.342,861.3623,841.342,851.3623,837.342,855.3623" style="stroke:#3A3A3A;stroke-width:1;"/><line style="stroke:#3A3A3A;stroke-width:1;" x1="1052.2029" x2="1052.2029" y1="841.3623" y2="861.3623"/><polygon fill="#3A3A3A" points="1048.2029,851.3623,1052.2029,861.3623,1056.2029,851.3623,1052.2029,855.3623" style="stroke:#3A3A3A;stroke-width:1;"/><line style="stroke:#3A3A3A;stroke-width:1;" x1="962.2222" x2="962.2222" y1="745.2295" y2="780.2295"/><polygon fill="#3A3A3A" points="958.2222,770.2295,962.2222,780.2295,966.2222,770.2295,962.2222,774.2295" style="stroke:#3A3A3A;stroke-width:1;"/><line style="stroke:#3A3A3A;stroke-width:1;" x1="747.1543" x2="610.1748" y1="688.0967" y2="688.0967"/><line style="stroke:#3A3A3A;stroke-width:1;" x1="610.1748" x2="610.1748" y1="688.0967" y2="710.0967"/><polygon fill="#3A3A3A" points="606.1748,700.0967,610.1748,710.0967,614.1748,700.0967,610.1748,704.0967" style="stroke:#3A3A3A;stroke-width:1;"/><line style="stroke:#3A3A3A;stroke-width:1;" x1="825.2427" x2="962.2222" y1="688.0967" y2="688.0967"/><line style="stroke:#3A3A3A;stroke-width:1;" x1="962.2222" x2="962.2222" y1="688.0967" y2="710.0967"/><polygon fill="#3A3A3A" points="958.2222,700.0967,962.2222,710.0967,966.2222,700.0967,962.2222,704.0967" style="stroke:#3A3A3A;stroke-width:1;"/><line style="stroke:#3A3A3A;stroke-width:1;" x1="962.2222" x2="962.2222" y1="867.3623" y2="872.3623"/><line style="stroke:#3A3A3A;stroke-width:1;" x1="962.2222" x2="242.2676" y1="872.3623" y2="872.3623"/><line style="stroke:#3A3A3A;stroke-width:1;" x1="242.2676" x2="242.2676" y1="872.3623" y2="887.3623"/><polygon fill="#3A3A3A" points="238.2676,877.3623,242.2676,887.3623,246.2676,877.3623,242.2676,881.3623" style="stroke:#3A3A3A;stroke-width:1;"/><line style="stroke:#3A3A3A;stroke-width:1;" x1="786.1985" x2="786.1985" y1="656.0967" y2="676.0967"/><polygon fill="#3A3A3A" points="782.1985,666.0967,786.1985,676.0967,790.1985,666.0967,786.1985,670.0967" style="stroke:#3A3A3A;stroke-width:1;"/><line style="stroke:#3A3A3A;stroke-width:1;" x1="242.2676" x2="242.2676" y1="600.9639" y2="605.9639"/><line style="stroke:#3A3A3A;stroke-width:1;" x1="242.2676" x2="786.1985" y1="605.9639" y2="605.9639"/><line style="stroke:#3A3A3A;stroke-width:1;" x1="786.1985" x2="786.1985" y1="605.9639" y2="620.9639"/><polygon fill="#3A3A3A" points="782.1985,610.9639,786.1985,620.9639,790.1985,610.9639,786.1985,614.9639" style="stroke:#3A3A3A;stroke-width:1;"/><text fill="#111111" font-family="Arial" font-size="13" font-weight="bold" lengthAdjust="spacing" textLength="143.5015" x="179.2434" y="63.2578">Gestor del cat&#225;logo</text><text fill="#111111" font-family="Arial" font-size="13" font-weight="bold" lengthAdjust="spacing" textLength="129.981" x="768.0452" y="63.2578">Sistema SGCD-BH</text><!--SRC=[TLAzZjD04Exz54ENI0a26YIdGFdJ4OdaK7AaHHFln1cnth5sru53ANW8NY0bnLKKb4ZdD-596DlXT5SWMVBVVDz-F_ECNMOhG_2HGcGhpxagR18vMeBPyELhkFy5uopoaGqQ2l3dstSOcu8TX-Wnu_gd0qCMCeprsKekINAwKYhnJp-VaX3HnoHTECuO8L1eiQINXH8TsL6IJZqX293XYErtBwRAeYIzGfHE1k2as7aQDCIKYw_lCFGR8FeSWOlwd9DJcPauYFGb2g2Dv1sg0nabdah2c02aQyfR1s3re51IndlEEZyZ_SzxwDt_lc4bWtr5BX8SoRSp1j_q8HvKU2_KTtqTLhg5opq5X2DQyGEeN1CNt5wm3IFPGD1pSW4iqMS8x-UhsMA-kfb3ODU1srbdU7yH2vyFh5seccLz3a-qYZfLBHmw9PfDx4v8Ds8rPSsmh7RwXCfwsgXVAX0sLzFPSFBsbAHRj2fJeonA2I0wcQCMn_hIMw-6BrvfibqGMosHZJmOxsoaouhQ3CbxKVjGQkijc_wyRJe8v8zjaJg7Hc1olLwFPzVhngJkI9bqgLnor1QB7J-UruG-JDujfeff87lndxhu7jU7bQvBkmh_PW1pPDTDwl9MwlDhInkuYQ1KSRRndHtg7vUyE-uk-FyiSBgzR403rllX8LwZ9pTs_W80]--></g></svg>