<svg xmlns="http://www.w3.org/2000/svg" xmlns:xlink="http://www.w3.org/1999/xlink" contentStyleType="text/css" height="1023px" preserveAspectRatio="none" style="width:824px;height:1023px;background:#FFFFFF;" version="1.1" viewBox="0 0 824 1023" width="824px" zoomAndPan="magnify"><title>S-01 &#183; Casos de uso principales del SGCD-BH (vista simplificada de D-02)</title><defs/><g><text fill="#111111" font-family="Arial" font-size="16" font-weight="bold" lengthAdjust="spacing" textLength="655.6406" x="77.1797" y="24.8516">S-01 &#183; Casos de uso principales del SGCD-BH (vista simplificada de D-02)</text><!--cluster SGCD-BH--><g id="cluster_SGCD-BH"><rect fill="none" height="713" rx="5" ry="5" style="stroke:#8A8F98;stroke-width:1;" width="664" x="154" y="46.625"/><text fill="#111111" font-family="Arial" font-size="15" font-weight="bold" lengthAdjust="spacing" textLength="76.7871" x="447.6064" y="62.5483">SGCD-BH</text></g><g id="elem_U1"><ellipse cx="316.0032" cy="110.5844" fill="#FFFFFF" rx="112.5032" ry="27.9594" style="stroke:#111111;stroke-width:1.2;"/><text fill="#111111" font-family="Arial" font-size="15" lengthAdjust="spacing" textLength="141.2109" x="242.3977" y="106.0656">Consultar cat&#225;logo</text><text fill="#111111" font-family="Arial" font-size="15" lengthAdjust="spacing" textLength="109.2773" x="258.3645" y="123.5266">y ficha t&#233;cnica</text></g><g id="elem_U2"><ellipse cx="315.9146" cy="195.4079" fill="#FFFFFF" rx="96.9146" ry="21.7829" style="stroke:#111111;stroke-width:1.2;"/><text fill="#111111" font-family="Arial" font-size="15" lengthAdjust="spacing" textLength="154.2847" x="238.1514" y="198.8373">Comparar productos</text></g><g id="elem_U3"><ellipse cx="315.8981" cy="280.4926" fill="#FFFFFF" rx="93.8981" ry="27.8676" style="stroke:#111111;stroke-width:1.2;"/><text fill="#111111" font-family="Arial" font-size="15" lengthAdjust="spacing" textLength="115.6494" x="255.0734" y="275.9738">Enviar consulta</text><text fill="#111111" font-family="Arial" font-size="15" lengthAdjust="spacing" textLength="106.1646" x="259.8159" y="293.4347">por WhatsApp</text></g><g id="elem_U4"><ellipse cx="698.816" cy="280.5471" fill="#EDE4FB" rx="102.816" ry="26.4221" style="stroke:#6D28D9;stroke-width:1.2;"/><text fill="#6D28D9" font-family="Arial" font-size="15" font-style="italic" lengthAdjust="spacing" textLength="94.3506" x="644.4167" y="274.87">&#171;propuesto&#187;</text><text fill="#111111" font-family="Arial" font-size="15" lengthAdjust="spacing" textLength="136.8237" x="623.1801" y="292.331">Registrar consulta</text></g><g id="elem_U5"><ellipse cx="315.9955" cy="364.6241" fill="#FFFFFF" rx="92.9955" ry="20.9991" style="stroke:#111111;stroke-width:1.2;"/><text fill="#111111" font-family="Arial" font-size="15" lengthAdjust="spacing" textLength="145.2319" x="241.6163" y="368.4521">Ver d&#243;nde comprar</text></g><g id="elem_U6"><ellipse cx="316.0152" cy="442.628" fill="#FFFFFF" rx="98.0152" ry="22.003" style="stroke:#111111;stroke-width:1.2;"/><text fill="#111111" font-family="Arial" font-size="15" lengthAdjust="spacing" textLength="156.7822" x="237.3018" y="445.9455">Administrar cat&#225;logo</text></g><g id="elem_U9"><ellipse cx="316.1021" cy="523.6454" fill="#FFFFFF" rx="108.1021" ry="24.0204" style="stroke:#111111;stroke-width:1.2;"/><text fill="#111111" font-family="Arial" font-size="15" lengthAdjust="spacing" textLength="179.2163" x="226.4939" y="526.8383">Solicitar ser distribuidor</text></g><g id="elem_U7"><ellipse cx="316.0111" cy="609.4272" fill="#EDE4FB" rx="122.0111" ry="26.8022" style="stroke:#6D28D9;stroke-width:1.2;"/><text fill="#6D28D9" font-family="Arial" font-size="15" font-style="italic" lengthAdjust="spacing" textLength="94.3506" x="261.8036" y="602.1984">&#171;propuesto&#187;</text><text fill="#111111" font-family="Arial" font-size="15" lengthAdjust="spacing" textLength="180.3516" x="218.8031" y="619.6593">Gestionar distribuidores</text></g><g id="elem_U8"><ellipse cx="315.8324" cy="707.6541" fill="#EDE4FB" rx="145.8324" ry="36.0291" style="stroke:#6D28D9;stroke-width:1.2;"/><text fill="#6D28D9" font-family="Arial" font-size="15" font-style="italic" lengthAdjust="spacing" textLength="94.3506" x="244.6637" y="692.978">&#171;propuesto&#187;</text><text fill="#111111" font-family="Arial" font-size="15" lengthAdjust="spacing" textLength="214.5264" x="184.5759" y="710.439">Dar seguimiento a consultas</text><text fill="#111111" font-family="Arial" font-size="15" lengthAdjust="spacing" textLength="105.8716" x="238.9032" y="727.8999">y ver reportes</text></g><!--entity CL--><g id="elem_CL"><ellipse cx="56.7437" cy="219.625" fill="#FFFFFF" rx="8" ry="8" style="stroke:#111111;stroke-width:0.5;"/><path d="M56.7437,227.625 L56.7437,254.625 M43.7437,235.625 L69.7437,235.625 M56.7437,254.625 L43.7437,269.625 M56.7437,254.625 L69.7437,269.625 " fill="none" style="stroke:#111111;stroke-width:0.5;"/><text fill="#111111" font-family="Arial" font-size="15" font-weight="bold" lengthAdjust="spacing" textLength="59.4873" x="27" y="285.0483">Cliente</text></g><!--entity DI--><g id="elem_DI"><ellipse cx="56.614" cy="493.625" fill="#FFFFFF" rx="8" ry="8" style="stroke:#111111;stroke-width:0.5;"/><path d="M56.614,501.625 L56.614,528.625 M43.614,509.625 L69.614,509.625 M56.614,528.625 L43.614,543.625 M56.614,528.625 L69.614,543.625 " fill="none" style="stroke:#111111;stroke-width:0.5;"/><text fill="#111111" font-family="Arial" font-size="15" font-weight="bold" lengthAdjust="spacing" textLength="101.228" x="6" y="559.0483">Distribuidor</text></g><!--entity GA--><g id="elem_GA"><ellipse cx="698.998" cy="931.625" fill="#FFFFFF" rx="8" ry="8" style="stroke:#111111;stroke-width:0.5;"/><path d="M698.998,939.625 L698.998,966.625 M685.998,947.625 L711.998,947.625 M698.998,966.625 L685.998,981.625 M698.998,966.625 L711.998,981.625 " fill="none" style="stroke:#111111;stroke-width:0.5;"/><text fill="#111111" font-family="Arial" font-size="15" font-weight="bold" lengthAdjust="spacing" textLength="66.9873" x="638.5" y="997.0483">Gestor /</text><text fill="#111111" font-family="Arial" font-size="15" font-weight="bold" lengthAdjust="spacing" textLength="120.9961" x="638.5" y="1014.5093">Administrador</text></g><!--entity WA--><g id="elem_WA"><ellipse cx="698.8003" cy="801.5859" fill="#FFFFFF" rx="8" ry="8" style="stroke:#111111;stroke-width:0.5;"/><path d="M698.8003,809.5859 L698.8003,836.5859 M685.8003,817.5859 L711.8003,817.5859 M698.8003,836.5859 L685.8003,851.5859 M698.8003,836.5859 L711.8003,851.5859 " fill="none" style="stroke:#111111;stroke-width:0.5;"/><text fill="#111111" font-family="Arial" font-size="15" font-weight="bold" lengthAdjust="spacing" textLength="86.5283" x="623.5" y="867.0093">WhatsApp</text><text fill="#111111" font-family="Arial" font-size="15" font-weight="bold" lengthAdjust="spacing" textLength="150.6006" x="623.5" y="884.4702">(sistema externo)</text><text fill="#111111" font-family="Arial" font-size="15" font-weight="bold" lengthAdjust="spacing" textLength="85.4736" x="656.0635" y="789.5483">&#171;sistema&#187;</text></g><!--link CL to U1--><g id="link_CL_U1"><path d="M85.56,210.835 C101.32,191.635 122.52,169.635 146,155.625 C168.69,142.095 195.47,132.555 220.95,125.875 " fill="none" id="CL-U1" style="stroke:#3A3A3A;stroke-width:1;"/></g><!--link CL to U2--><g id="link_CL_U2"><path d="M86.04,243.635 C123.88,235.705 191.95,221.425 244.07,210.495 " fill="none" id="CL-U2" style="stroke:#3A3A3A;stroke-width:1;"/></g><!--link CL to U3--><g id="link_CL_U3"><path d="M86.04,253.065 C120.22,257.175 179.05,264.255 228.51,270.215 " fill="none" id="CL-U3" style="stroke:#3A3A3A;stroke-width:1;"/></g><!--link CL to U5--><g id="link_CL_U5"><path d="M86.34,280.745 C102.47,296.405 123.77,314.385 146,325.625 C173.41,339.485 205.81,348.495 234.86,354.315 " fill="none" id="CL-U5" style="stroke:#3A3A3A;stroke-width:1;"/></g><!--link DI to U9--><g id="link_DI_U9"><path d="M107.15,523.625 C135.79,523.625 172.97,523.625 207.94,523.625 " fill="none" id="DI-U9" style="stroke:#3A3A3A;stroke-width:1;"/></g><!--link U3 to U4--><g id="link_U3_U4"><path d="M410.2,280.625 C466.38,280.625 531.99,280.625 589.72,280.625 " fill="none" id="U3-to-U4" style="stroke:#3A3A3A;stroke-width:1;stroke-dasharray:7.0,7.0;"/><polygon fill="#3A3A3A" points="595.72,280.625,586.72,276.625,590.72,280.625,586.72,284.625,595.72,280.625" style="stroke:#3A3A3A;stroke-width:1;"/><text fill="#3A3A3A" font-family="Arial" font-size="15" lengthAdjust="spacing" textLength="72.7002" x="493" y="276.5483">&#171;include&#187;</text></g><!--link U3 to WA--><g id="link_U3_WA"><path d="M401.58,292.235 C423.61,298.885 445.7,309.305 462,325.625 C604.64,468.475 477.43,596.245 596,759.625 C603.58,770.065 613.14,779.535 623.36,787.935 " fill="none" id="U3-WA" style="stroke:#3A3A3A;stroke-width:1;"/></g><!--link U6 to GA--><g id="link_U6_GA"><path d="M409.07,449.745 C429.25,455.655 448.57,465.495 462,481.625 C514.93,545.185 447.67,782.795 492,852.625 C494.27,856.195 578.43,903.765 638.46,937.395 " fill="none" id="U6-GA" style="stroke:#3A3A3A;stroke-width:1;"/></g><!--link U7 to GA--><g id="link_U7_GA"><path d="M419.22,624.255 C435.55,630.835 450.74,640.235 462,653.625 C532.33,737.245 423.61,812.415 492,897.625 C510.7,920.925 584.37,943.185 638.28,956.865 " fill="none" id="U7-GA" style="stroke:#3A3A3A;stroke-width:1;"/></g><!--link U8 to GA--><g id="link_U8_GA"><path d="M332.01,743.535 C356.66,797.555 411.18,898.405 492,945.625 C536.17,971.435 594.72,976.305 638.11,975.525 " fill="none" id="U8-GA" style="stroke:#3A3A3A;stroke-width:1;"/></g><!--SRC=[RLFBRjim4BppAxOw9GUviLtdKGG2NAbr0-HKGyt5GC58jBmeHGeaPVI1V4oEEVUGU_nZNKfYgmGvQR2QcPtTbTwWAcHR2lWch4Ef9zZMaacnTU0q6Ans3aeqed2e5RFVKJNSy1fAiUMjT9-qScly9M2wO0wT5B2EJwRmz0WfjzeI3LgheJ7K1XikXIz9MA_IBFxm6OxsQ1q7YtKZSOi5BxcNPF79x9WnNZXj84eb2kL41Dn2UXsg6IaDthPOQjEzogwOZybLHIcYeKC4lnbG155mIzLKAqkfkO62kyEzr9NUg9z0dNSStE6XK9IXSykdptMr7zlG8BfiAO3jIRCnwQFQetSUUcnKGpblTjpPPTFq_FcO_qLKVeQH98BBI-hGj7GBdIITvDrOybKOA0z_5Esee4YaxNqNOzAoh545vp1cppiTyzPQOe5-6TRRljndVZ4ch_pdeHL_JXJsjSXdOs7M-LSjrlwA6lY_QQrV_PvQ6q6RSgzxdRExS74VWPvlD-h_X27iQXbOOU4RTMI98ceEueSJHkbZxp_KUlUR9MFfDSInF_S0PW7C0rYmxAe35ooVmsIIq57WFNaDlqwI-3eHo2u_zO3Iv6S1dFVWBm00]--></g></svg>