<svg xmlns="http://www.w3.org/2000/svg" xmlns:xlink="http://www.w3.org/1999/xlink" contentStyleType="text/css" height="434px" preserveAspectRatio="none" style="width:623px;height:434px;background:#FFFFFF;" version="1.1" viewBox="0 0 623 434" width="623px" zoomAndPan="magnify"><title>S-02 &#183; Clases principales del SGCD-BH (vista simplificada de D-07)</title><defs/><g><text fill="#111111" font-family="Arial" font-size="16" font-weight="bold" lengthAdjust="spacing" textLength="595.6328" x="10" y="24.8516">S-02 &#183; Clases principales del SGCD-BH (vista simplificada de D-07)</text><!--class Categoria--><g id="elem_Categoria"><rect codeLine="7" fill="#FFFFFF" height="27.4609" id="Categoria" rx="5" ry="5" style="stroke:#111111;stroke-width:0.5;" width="79.0005" x="159.6531" y="400.625"/><rect fill="#F2F2F4" height="27.4609" rx="5" ry="5" style="stroke:#F2F2F4;stroke-width:0.5;" width="79.0005" x="159.6531" y="400.625"/><rect fill="#F2F2F4" height="5" style="stroke:#F2F2F4;stroke-width:0.5;" width="79.0005" x="159.6531" y="423.0859"/><rect codeLine="7" fill="none" height="27.4609" id="Categoria" rx="5" ry="5" style="stroke:#111111;stroke-width:0.5;" width="79.0005" x="159.6531" y="400.625"/><text fill="#111111" font-family="Arial" font-size="15" lengthAdjust="spacing" textLength="73.0005" x="162.6531" y="419.5483">Categoria</text></g><!--class Producto--><g id="elem_Producto"><rect codeLine="8" fill="#FFFFFF" height="27.4609" id="Producto" rx="5" ry="5" style="stroke:#111111;stroke-width:0.5;" width="72.7236" x="242.6531" y="285.625"/><rect fill="#F2F2F4" height="27.4609" rx="5" ry="5" style="stroke:#F2F2F4;stroke-width:0.5;" width="72.7236" x="242.6531" y="285.625"/><rect fill="#F2F2F4" height="5" style="stroke:#F2F2F4;stroke-width:0.5;" width="72.7236" x="242.6531" y="308.0859"/><rect codeLine="8" fill="none" height="27.4609" id="Producto" rx="5" ry="5" style="stroke:#111111;stroke-width:0.5;" width="72.7236" x="242.6531" y="285.625"/><text fill="#111111" font-family="Arial" font-size="15" lengthAdjust="spacing" textLength="66.7236" x="245.6531" y="304.5483">Producto</text></g><!--class EspecificacionTecnica--><g id="elem_EspecificacionTecnica"><rect codeLine="9" fill="#FFFFFF" height="27.4609" id="EspecificacionTecnica" rx="5" ry="5" style="stroke:#111111;stroke-width:0.5;" width="171.6812" x="274.1531" y="400.625"/><rect fill="#F2F2F4" height="27.4609" rx="5" ry="5" style="stroke:#F2F2F4;stroke-width:0.5;" width="171.6812" x="274.1531" y="400.625"/><rect fill="#F2F2F4" height="5" style="stroke:#F2F2F4;stroke-width:0.5;" width="171.6812" x="274.1531" y="423.0859"/><rect codeLine="9" fill="none" height="27.4609" id="EspecificacionTecnica" rx="5" ry="5" style="stroke:#111111;stroke-width:0.5;" width="171.6812" x="274.1531" y="400.625"/><text fill="#111111" font-family="Arial" font-size="15" lengthAdjust="spacing" textLength="165.6812" x="277.1531" y="419.5483">Especificaci&#243;n t&#233;cnica</text></g><!--class ConsultaComercial--><g id="elem_ConsultaComercial"><rect codeLine="10" fill="#F6F1FE" height="44.9219" id="ConsultaComercial" rx="5" ry="5" style="stroke:#6D28D9;stroke-width:0.5;" width="149.6938" x="264.1531" y="152.625"/><rect fill="#EDE4FB" height="44.9219" rx="5" ry="5" style="stroke:#EDE4FB;stroke-width:0.5;" width="149.6938" x="264.1531" y="152.625"/><rect fill="#EDE4FB" height="5" style="stroke:#EDE4FB;stroke-width:0.5;" width="149.6938" x="264.1531" y="192.5469"/><rect codeLine="10" fill="none" height="44.9219" id="ConsultaComercial" rx="5" ry="5" style="stroke:#6D28D9;stroke-width:0.5;" width="149.6938" x="264.1531" y="152.625"/><text fill="#6D28D9" font-family="Arial" font-size="15" font-style="italic" lengthAdjust="spacing" textLength="94.3506" x="291.8247" y="171.5483">&#171;propuesto&#187;</text><text fill="#111111" font-family="Arial" font-size="15" lengthAdjust="spacing" textLength="143.6938" x="267.1531" y="189.0093">Consulta comercial</text></g><!--class Distribuidor--><g id="elem_Distribuidor"><rect codeLine="11" fill="#F6F1FE" height="44.9219" id="Distribuidor" rx="5" ry="5" style="stroke:#6D28D9;stroke-width:0.5;" width="96.3506" x="351.1531" y="276.625"/><rect fill="#EDE4FB" height="44.9219" rx="5" ry="5" style="stroke:#EDE4FB;stroke-width:0.5;" width="96.3506" x="351.1531" y="276.625"/><rect fill="#EDE4FB" height="5" style="stroke:#EDE4FB;stroke-width:0.5;" width="96.3506" x="351.1531" y="316.5469"/><rect codeLine="11" fill="none" height="44.9219" id="Distribuidor" rx="5" ry="5" style="stroke:#6D28D9;stroke-width:0.5;" width="96.3506" x="351.1531" y="276.625"/><text fill="#6D28D9" font-family="Arial" font-size="15" font-style="italic" lengthAdjust="spacing" textLength="94.3506" x="352.1531" y="295.5483">&#171;propuesto&#187;</text><text fill="#111111" font-family="Arial" font-size="15" lengthAdjust="spacing" textLength="87.8101" x="355.4233" y="313.0093">Distribuidor</text></g><!--class Usuario--><g id="elem_Usuario"><rect codeLine="12" fill="#FFFFFF" height="27.4609" id="Usuario" rx="5" ry="5" style="stroke:#111111;stroke-width:0.5;" width="63.0044" x="307.6531" y="46.625"/><rect fill="#F2F2F4" height="27.4609" rx="5" ry="5" style="stroke:#F2F2F4;stroke-width:0.5;" width="63.0044" x="307.6531" y="46.625"/><rect fill="#F2F2F4" height="5" style="stroke:#F2F2F4;stroke-width:0.5;" width="63.0044" x="307.6531" y="69.0859"/><rect codeLine="12" fill="none" height="27.4609" id="Usuario" rx="5" ry="5" style="stroke:#111111;stroke-width:0.5;" width="63.0044" x="307.6531" y="46.625"/><text fill="#111111" font-family="Arial" font-size="15" lengthAdjust="spacing" textLength="57.0044" x="310.6531" y="65.5483">Usuario</text></g><!--link Producto to Categoria--><g id="link_Producto_Categoria"><path codeLine="14" d="M253.9131,312.655 C238.8131,321.475 220.6031,334.715 210.1531,351.625 C200.9231,366.575 198.9631,387.235 198.7831,400.385 " fill="none" id="Producto-Categoria" style="stroke:#3A3A3A;stroke-width:1;"/><polygon fill="#3A3A3A" points="212.9607,366.4357,221.7219,359.122,215.7497,355.369,212.9607,366.4357" style="stroke:#3A3A3A;stroke-width:1;"/><text fill="#3A3A3A" font-family="Arial" font-size="15" lengthAdjust="spacing" textLength="90.1978" x="226.1531" y="366.5483">pertenece a</text><text fill="#3A3A3A" font-family="Arial" font-size="15" lengthAdjust="spacing" textLength="26.5796" x="213.4972" y="334.9773">0..*</text><text fill="#3A3A3A" font-family="Arial" font-size="15" lengthAdjust="spacing" textLength="26.5796" x="167.9597" y="389.1073">1..*</text></g><!--reverse link Producto to EspecificacionTecnica--><g id="link_Producto_EspecificacionTecnica"><path codeLine="15" d="M298.0871,322.0393 C306.8171,332.2593 311.3031,337.965 321.1531,351.625 C332.9831,368.035 345.2631,387.955 352.8031,400.585 " fill="none" id="Producto-backto-EspecificacionTecnica" style="stroke:#3A3A3A;stroke-width:1;"/><polygon fill="#3A3A3A" points="290.2931,312.915,291.1487,320.0752,298.0871,322.0393,297.2315,314.8791,290.2931,312.915" style="stroke:#3A3A3A;stroke-width:1;"/><polygon fill="#3A3A3A" points="336.7235,356.4323,340.0339,367.3543,345.8215,363.3226,336.7235,356.4323" style="stroke:#3A3A3A;stroke-width:1;"/><text fill="#3A3A3A" font-family="Arial" font-size="15" lengthAdjust="spacing" textLength="63.8965" x="350.1531" y="366.5483">describe</text><text fill="#3A3A3A" font-family="Arial" font-size="15" lengthAdjust="spacing" textLength="9.5435" x="283.8927" y="335.0578">1</text><text fill="#3A3A3A" font-family="Arial" font-size="15" lengthAdjust="spacing" textLength="26.5796" x="319.2159" y="389.1056">0..*</text></g><!--link ConsultaComercial to Producto--><g id="link_ConsultaComercial_Producto"><path codeLine="16" d="M318.6231,197.815 C311.2831,206.525 303.5131,217.015 298.1531,227.625 C288.5531,246.635 283.3731,271.055 280.9431,285.595 " fill="none" id="ConsultaComercial-Producto" style="stroke:#3A3A3A;stroke-width:1;"/><polygon fill="#3A3A3A" points="301.7864,242.869,309.3085,234.2861,302.827,231.5038,301.7864,242.869" style="stroke:#3A3A3A;stroke-width:1;"/><text fill="#3A3A3A" font-family="Arial" font-size="15" lengthAdjust="spacing" textLength="41.9092" x="314.1531" y="242.5483">sobre</text><text fill="#3A3A3A" font-family="Arial" font-size="15" lengthAdjust="spacing" textLength="26.5796" x="284.5581" y="219.4066">0..*</text><text fill="#3A3A3A" font-family="Arial" font-size="15" lengthAdjust="spacing" textLength="28.623" x="248.4595" y="274.1194">0..1</text></g><!--link ConsultaComercial to Distribuidor--><g id="link_ConsultaComercial_Distribuidor"><path codeLine="17" d="M349.7431,197.655 C360.6431,219.815 377.5331,254.165 388.4731,276.395 " fill="none" id="ConsultaComercial-Distribuidor" style="stroke:#3A3A3A;stroke-width:1;"/><polygon fill="#3A3A3A" points="381.8013,242.7394,380.1752,231.4432,373.846,234.5563,381.8013,242.7394" style="stroke:#3A3A3A;stroke-width:1;"/><text fill="#3A3A3A" font-family="Arial" font-size="15" lengthAdjust="spacing" textLength="79.8267" x="389.1531" y="242.5483">derivada a</text><text fill="#3A3A3A" font-family="Arial" font-size="15" lengthAdjust="spacing" textLength="26.5796" x="323.239" y="219.5988">0..*</text><text fill="#3A3A3A" font-family="Arial" font-size="15" lengthAdjust="spacing" textLength="28.623" x="353.8769" y="264.9977">0..1</text></g><!--link Usuario to ConsultaComercial--><g id="link_Usuario_ConsultaComercial"><path codeLine="18" d="M339.1531,73.645 C339.1531,92.615 339.1531,128.875 339.1531,152.255 " fill="none" id="Usuario-ConsultaComercial" style="stroke:#3A3A3A;stroke-width:1;"/><polygon fill="#3A3A3A" points="345.1531,119.3555,348.6798,108.5014,341.6264,108.5014,345.1531,119.3555" style="stroke:#3A3A3A;stroke-width:1;"/><text fill="#3A3A3A" font-family="Arial" font-size="15" lengthAdjust="spacing" textLength="56.7261" x="355.1531" y="118.5483">atiende</text><text fill="#3A3A3A" font-family="Arial" font-size="15" lengthAdjust="spacing" textLength="28.623" x="305.9335" y="95.9635">0..1</text><text fill="#3A3A3A" font-family="Arial" font-size="15" lengthAdjust="spacing" textLength="26.5796" x="309.9353" y="141.2088">0..*</text></g><!--SRC=[ZP4zJyCm48Pt_ueZ4rHArI8XfAhAGCh7Y5IOqTMvmWd7jcod4lmZPWPs-iUuf4qfQWUs-thkVSy-OQjDKn4yKKnit92RsgWNbWhLFhr1JVM2GjoKD0TjICLNjXu3rb3H4XkJRfnDStud65-enCaGpFFHENn_GMamKWGVH8Sz6eahCZ2_BMVvrHsShZWcXCYrDxnaZHLA7sRvwF9CAIrmX18JFRl0kCtlWwiQdTmspQwZ9zt1cjUV5jBwGrl9Ci08-qrd7wZhz6JfR1Jt2DhL53IZwPY-NFPLc4vzSBwH9t95iQLduZpmek7AXQC3Zx71m4wftZ1ae-5ma46UGpRkejrfC05F8P4bJO1Gx37Z30OjiM6FtYDqHL6B6uAfEhI_fokHBDnjdq1qYq0Y-0_gpyMjPE1L-s6jt-sn_UYluSEz4y34PEMRYny0]--></g></svg>