<svg xmlns="http://www.w3.org/2000/svg" xmlns:xlink="http://www.w3.org/1999/xlink" contentStyleType="text/css" height="1000px" preserveAspectRatio="none" style="width:1071px;height:1000px;background:#FFFFFF;" version="1.1" viewBox="0 0 1071 1000" width="1071px" zoomAndPan="magnify"><defs/><g><rect fill="none" height="19.7891" style="stroke:none;stroke-width:1;" width="1038.7522" x="15" y="12.5093"/><ellipse cx="208.5027" cy="47.2983" fill="#111111" rx="10" ry="10" style="stroke:#222222;stroke-width:1;"/><rect fill="#FFFFFF" height="39.7891" rx="5" ry="5" style="stroke:#111111;stroke-width:0.5;" width="228.2251" x="94.3901" y="77.2983"/><text fill="#111111" font-family="Arial" font-size="17" lengthAdjust="spacing" textLength="208.2251" x="104.3901" y="103.0781">Entra a la web renovada</text><polygon fill="#FFFFFF" points="123.1914,137.3857,293.814,137.3857,305.814,149.3857,293.814,161.3857,123.1914,161.3857,111.1914,149.3857,123.1914,137.3857" style="stroke:#111111;stroke-width:0.5;"/><text fill="#111111" font-family="Arial" font-size="17" lengthAdjust="spacing" textLength="170.6226" x="123.1914" y="155.271">&#191;Conoce el modelo?</text><text fill="#3A3A3A" font-family="Arial" font-size="17" lengthAdjust="spacing" textLength="13.5801" x="97.6113" y="145.3765">s&#237;</text><text fill="#3A3A3A" font-family="Arial" font-size="17" lengthAdjust="spacing" textLength="21.1753" x="305.814" y="145.3765">no</text><rect fill="#FFFFFF" height="39.7891" rx="5" ry="5" style="stroke:#111111;stroke-width:0.5;" width="160.3828" x="21" y="171.3857"/><text fill="#111111" font-family="Arial" font-size="17" lengthAdjust="spacing" textLength="140.3828" x="31" y="197.1655">Busca el modelo</text><rect fill="#FFFFFF" height="59.5781" rx="5" ry="5" style="stroke:#111111;stroke-width:0.5;" width="194.167" x="218.7305" y="171.3857"/><text fill="#111111" font-family="Arial" font-size="17" lengthAdjust="spacing" textLength="163.2764" x="228.7305" y="197.1655">Explora el cat&#225;logo</text><text fill="#111111" font-family="Arial" font-size="17" lengthAdjust="spacing" textLength="174.167" x="228.7305" y="216.9546">y filtra por categor&#237;a</text><polygon fill="#FFFFFF" points="208.5027,236.9639,220.5027,248.9639,208.5027,260.9639,196.5027,248.9639,208.5027,236.9639" style="stroke:#111111;stroke-width:0.5;"/><rect fill="#FFFFFF" height="39.7891" rx="5" ry="5" style="stroke:#111111;stroke-width:0.5;" width="210.6606" x="103.1724" y="280.9639"/><text fill="#111111" font-family="Arial" font-size="17" lengthAdjust="spacing" textLength="190.6606" x="113.1724" y="306.7437">Revisa la ficha t&#233;cnica</text><rect fill="#FFFFFF" height="39.7891" rx="5" ry="5" style="stroke:#111111;stroke-width:0.5;" width="243.7974" x="86.604" y="392.6475"/><text fill="#111111" font-family="Arial" font-size="17" lengthAdjust="spacing" textLength="223.7974" x="96.604" y="418.4272">Compara hasta 3 modelos</text><polygon fill="#FFFFFF" points="127.429,340.7529,289.5764,340.7529,301.5764,352.7529,289.5764,364.7529,127.429,364.7529,115.429,352.7529,127.429,340.7529" style="stroke:#111111;stroke-width:0.5;"/><text fill="#3A3A3A" font-family="Arial" font-size="17" lengthAdjust="spacing" textLength="13.5801" x="212.5027" y="380.5327">s&#237;</text><text fill="#111111" font-family="Arial" font-size="17" lengthAdjust="spacing" textLength="162.1475" x="127.429" y="358.6382">&#191;Quiere comparar?</text><polygon fill="#FFFFFF" points="208.5027,452.4365,220.5027,464.4365,208.5027,476.4365,196.5027,464.4365,208.5027,452.4365" style="stroke:#111111;stroke-width:0.5;"/><rect fill="#FFFFFF" height="59.5781" rx="5" ry="5" style="stroke:#111111;stroke-width:0.5;" width="173.2158" x="121.8948" y="548.6294"/><text fill="#111111" font-family="Arial" font-size="17" lengthAdjust="spacing" textLength="147.0234" x="131.8948" y="574.4092">Pulsa &#171;Cotizar&#187; o</text><text fill="#111111" font-family="Arial" font-size="17" lengthAdjust="spacing" textLength="153.2158" x="131.8948" y="594.1982">&#171;D&#243;nde comprar&#187;</text><polygon fill="#FFFFFF" points="85.7756,496.7349,331.2297,496.7349,343.2297,508.7349,331.2297,520.7349,85.7756,520.7349,73.7756,508.7349,85.7756,496.7349" style="stroke:#111111;stroke-width:0.5;"/><text fill="#3A3A3A" font-family="Arial" font-size="17" lengthAdjust="spacing" textLength="13.5801" x="212.5027" y="536.5146">s&#237;</text><text fill="#111111" font-family="Arial" font-size="17" lengthAdjust="spacing" textLength="245.4541" x="85.7756" y="514.6201">&#191;Tiene intenci&#243;n de compra?</text><text fill="#3A3A3A" font-family="Arial" font-size="17" lengthAdjust="spacing" textLength="21.1753" x="343.2297" y="504.7256">no</text><ellipse cx="386.405" cy="508.7349" fill="none" rx="11" ry="11" style="stroke:#222222;stroke-width:1;"/><ellipse cx="386.405" cy="508.7349" fill="#222222" rx="6" ry="6" style="stroke:#222222;stroke-width:1;"/><line style="stroke:#8A8F98;stroke-width:1.5;" x1="15" x2="15" y1="12.5093" y2="988.731"/><rect fill="#EDE4FB" height="59.5781" rx="5" ry="5" style="stroke:#111111;stroke-width:0.5;" width="285.957" x="432.8003" y="628.2075"/><text fill="#111111" font-family="Arial" font-size="17" lengthAdjust="spacing" textLength="265.957" x="442.8003" y="653.9873">Registra el inicio de la consulta</text><text fill="#111111" font-family="Arial" font-size="17" lengthAdjust="spacing" textLength="197.6914" x="442.8003" y="673.7764">(ampliaci&#243;n propuesta)</text><rect fill="#FFFFFF" height="39.7891" rx="5" ry="5" style="stroke:#111111;stroke-width:0.5;" width="305.7627" x="422.8975" y="707.7856"/><text fill="#111111" font-family="Arial" font-size="17" lengthAdjust="spacing" textLength="285.7627" x="432.8975" y="733.5654">Genera el mensaje con el modelo</text><rect fill="#FFFFFF" height="39.7891" rx="5" ry="5" style="stroke:#111111;stroke-width:0.5;" width="152.0073" x="499.7751" y="767.5747"/><text fill="#111111" font-family="Arial" font-size="17" lengthAdjust="spacing" textLength="132.0073" x="509.7751" y="793.3545">Abre WhatsApp</text><line style="stroke:#8A8F98;stroke-width:1.5;" x1="416.8975" x2="416.8975" y1="12.5093" y2="988.731"/><rect fill="#FFFFFF" height="59.5781" rx="5" ry="5" style="stroke:#111111;stroke-width:0.5;" width="309.1328" x="738.6602" y="827.3638"/><text fill="#111111" font-family="Arial" font-size="17" lengthAdjust="spacing" textLength="289.1328" x="748.6602" y="853.1436">Atiende la consulta por WhatsApp</text><text fill="#111111" font-family="Arial" font-size="17" lengthAdjust="spacing" textLength="145.6455" x="748.6602" y="872.9326">(fuera de la web)</text><rect fill="#FFFFFF" height="39.7891" rx="5" ry="5" style="stroke:#111111;stroke-width:0.5;" width="239.1987" x="773.6272" y="906.9419"/><text fill="#111111" font-family="Arial" font-size="17" lengthAdjust="spacing" textLength="219.1987" x="783.6272" y="932.7217">Orienta al punto de venta</text><ellipse cx="893.2266" cy="977.731" fill="none" rx="11" ry="11" style="stroke:#222222;stroke-width:1;"/><ellipse cx="893.2266" cy="977.731" fill="#222222" rx="6" ry="6" style="stroke:#222222;stroke-width:1;"/><line style="stroke:#8A8F98;stroke-width:1.5;" x1="732.6602" x2="732.6602" y1="12.5093" y2="988.731"/><line style="stroke:#8A8F98;stroke-width:1.5;" x1="1051.793" x2="1051.793" y1="12.5093" y2="988.731"/><line style="stroke:#3A3A3A;stroke-width:1;" x1="208.5027" x2="208.5027" y1="57.2983" y2="77.2983"/><polygon fill="#3A3A3A" points="204.5027,67.2983,208.5027,77.2983,212.5027,67.2983,208.5027,71.2983" style="stroke:#3A3A3A;stroke-width:1;"/><line style="stroke:#3A3A3A;stroke-width:1;" x1="111.1914" x2="101.1914" y1="149.3857" y2="149.3857"/><line style="stroke:#3A3A3A;stroke-width:1;" x1="101.1914" x2="101.1914" y1="149.3857" y2="171.3857"/><polygon fill="#3A3A3A" points="97.1914,161.3857,101.1914,171.3857,105.1914,161.3857,101.1914,165.3857" style="stroke:#3A3A3A;stroke-width:1;"/><line style="stroke:#3A3A3A;stroke-width:1;" x1="305.814" x2="315.814" y1="149.3857" y2="149.3857"/><line style="stroke:#3A3A3A;stroke-width:1;" x1="315.814" x2="315.814" y1="149.3857" y2="171.3857"/><polygon fill="#3A3A3A" points="311.814,161.3857,315.814,171.3857,319.814,161.3857,315.814,165.3857" style="stroke:#3A3A3A;stroke-width:1;"/><line style="stroke:#3A3A3A;stroke-width:1;" x1="101.1914" x2="101.1914" y1="211.1748" y2="248.9639"/><line style="stroke:#3A3A3A;stroke-width:1;" x1="101.1914" x2="196.5027" y1="248.9639" y2="248.9639"/><polygon fill="#3A3A3A" points="186.5027,244.9639,196.5027,248.9639,186.5027,252.9639,190.5027,248.9639" style="stroke:#3A3A3A;stroke-width:1;"/><line style="stroke:#3A3A3A;stroke-width:1;" x1="315.814" x2="315.814" y1="230.9639" y2="248.9639"/><line style="stroke:#3A3A3A;stroke-width:1;" x1="315.814" x2="220.5027" y1="248.9639" y2="248.9639"/><polygon fill="#3A3A3A" points="230.5027,244.9639,220.5027,248.9639,230.5027,252.9639,226.5027,248.9639" style="stroke:#3A3A3A;stroke-width:1;"/><line style="stroke:#3A3A3A;stroke-width:1;" x1="208.5027" x2="208.5027" y1="117.0874" y2="137.3857"/><polygon fill="#3A3A3A" points="204.5027,127.3857,208.5027,137.3857,212.5027,127.3857,208.5027,131.3857" style="stroke:#3A3A3A;stroke-width:1;"/><line style="stroke:#3A3A3A;stroke-width:1;" x1="208.5027" x2="208.5027" y1="260.9639" y2="280.9639"/><polygon fill="#3A3A3A" points="204.5027,270.9639,208.5027,280.9639,212.5027,270.9639,208.5027,274.9639" style="stroke:#3A3A3A;stroke-width:1;"/><line style="stroke:#3A3A3A;stroke-width:1;" x1="208.5027" x2="208.5027" y1="364.7529" y2="392.6475"/><polygon fill="#3A3A3A" points="204.5027,382.6475,208.5027,392.6475,212.5027,382.6475,208.5027,386.6475" style="stroke:#3A3A3A;stroke-width:1;"/><line style="stroke:#3A3A3A;stroke-width:1;" x1="301.5764" x2="340.4014" y1="352.7529" y2="352.7529"/><polygon fill="#3A3A3A" points="336.4014,402.542,340.4014,412.542,344.4014,402.542,340.4014,406.542" style="stroke:#3A3A3A;stroke-width:1;"/><line style="stroke:#3A3A3A;stroke-width:1;" x1="340.4014" x2="340.4014" y1="352.7529" y2="464.4365"/><line style="stroke:#3A3A3A;stroke-width:1;" x1="340.4014" x2="220.5027" y1="464.4365" y2="464.4365"/><polygon fill="#3A3A3A" points="230.5027,460.4365,220.5027,464.4365,230.5027,468.4365,226.5027,464.4365" style="stroke:#3A3A3A;stroke-width:1;"/><line style="stroke:#3A3A3A;stroke-width:1;" x1="208.5027" x2="208.5027" y1="432.4365" y2="452.4365"/><polygon fill="#3A3A3A" points="204.5027,442.4365,208.5027,452.4365,212.5027,442.4365,208.5027,446.4365" style="stroke:#3A3A3A;stroke-width:1;"/><line style="stroke:#3A3A3A;stroke-width:1;" x1="208.5027" x2="208.5027" y1="320.7529" y2="340.7529"/><polygon fill="#3A3A3A" points="204.5027,330.7529,208.5027,340.7529,212.5027,330.7529,208.5027,334.7529" style="stroke:#3A3A3A;stroke-width:1;"/><line style="stroke:#3A3A3A;stroke-width:1;" x1="208.5027" x2="208.5027" y1="520.7349" y2="548.6294"/><polygon fill="#3A3A3A" points="204.5027,538.6294,208.5027,548.6294,212.5027,538.6294,208.5027,542.6294" style="stroke:#3A3A3A;stroke-width:1;"/><line style="stroke:#3A3A3A;stroke-width:1;" x1="343.2297" x2="375.405" y1="508.7349" y2="508.7349"/><polygon fill="#3A3A3A" points="365.405,504.7349,375.405,508.7349,365.405,512.7349,369.405,508.7349" style="stroke:#3A3A3A;stroke-width:1;"/><line style="stroke:#3A3A3A;stroke-width:1;" x1="208.5027" x2="208.5027" y1="608.2075" y2="613.2075"/><line style="stroke:#3A3A3A;stroke-width:1;" x1="208.5027" x2="575.7788" y1="613.2075" y2="613.2075"/><line style="stroke:#3A3A3A;stroke-width:1;" x1="575.7788" x2="575.7788" y1="613.2075" y2="628.2075"/><polygon fill="#3A3A3A" points="571.7788,618.2075,575.7788,628.2075,579.7788,618.2075,575.7788,622.2075" style="stroke:#3A3A3A;stroke-width:1;"/><line style="stroke:#3A3A3A;stroke-width:1;" x1="208.5027" x2="208.5027" y1="476.4365" y2="496.7349"/><polygon fill="#3A3A3A" points="204.5027,486.7349,208.5027,496.7349,212.5027,486.7349,208.5027,490.7349" style="stroke:#3A3A3A;stroke-width:1;"/><line style="stroke:#3A3A3A;stroke-width:1;" x1="575.7788" x2="575.7788" y1="687.7856" y2="707.7856"/><polygon fill="#3A3A3A" points="571.7788,697.7856,575.7788,707.7856,579.7788,697.7856,575.7788,701.7856" style="stroke:#3A3A3A;stroke-width:1;"/><line style="stroke:#3A3A3A;stroke-width:1;" x1="575.7788" x2="575.7788" y1="747.5747" y2="767.5747"/><polygon fill="#3A3A3A" points="571.7788,757.5747,575.7788,767.5747,579.7788,757.5747,575.7788,761.5747" style="stroke:#3A3A3A;stroke-width:1;"/><line style="stroke:#3A3A3A;stroke-width:1;" x1="893.2266" x2="893.2266" y1="886.9419" y2="906.9419"/><polygon fill="#3A3A3A" points="889.2266,896.9419,893.2266,906.9419,897.2266,896.9419,893.2266,900.9419" style="stroke:#3A3A3A;stroke-width:1;"/><line style="stroke:#3A3A3A;stroke-width:1;" x1="893.2266" x2="893.2266" y1="946.731" y2="966.731"/><polygon fill="#3A3A3A" points="889.2266,956.731,893.2266,966.731,897.2266,956.731,893.2266,960.731" style="stroke:#3A3A3A;stroke-width:1;"/><line style="stroke:#3A3A3A;stroke-width:1;" x1="575.7788" x2="575.7788" y1="807.3638" y2="812.3638"/><line style="stroke:#3A3A3A;stroke-width:1;" x1="575.7788" x2="893.2266" y1="812.3638" y2="812.3638"/><line style="stroke:#3A3A3A;stroke-width:1;" x1="893.2266" x2="893.2266" y1="812.3638" y2="827.3638"/><polygon fill="#3A3A3A" points="889.2266,817.3638,893.2266,827.3638,897.2266,817.3638,893.2266,821.3638" style="stroke:#3A3A3A;stroke-width:1;"/><text fill="#111111" font-family="Arial" font-size="17" font-weight="bold" lengthAdjust="spacing" textLength="67.4189" x="182.2393" y="28.2891">Cliente</text><text fill="#111111" font-family="Arial" font-size="17" font-weight="bold" lengthAdjust="spacing" textLength="138.2578" x="505.6499" y="28.2891">Web renovada</text><text fill="#111111" font-family="Arial" font-size="17" font-weight="bold" lengthAdjust="spacing" textLength="273.876" x="755.2886" y="28.2891">&#193;rea comercial / distribuidor</text><!--SRC=[PL8xZzD04ExtLmoYSHeG0WafBj1TBaV9KxeIJTRZP62zO-qZmCaDFuKIdQwYf42A_nYpzYKSefrlztlDF61lNMu8Fb1CxEGHvywP-8bzZm4xQAZ5xDAb-FIEhmcUF3TcM3acdsWmCM58PhdsAI0WE8JFj850NlROO6suXUhmUoLUB04vwAGX9oyMa7RaeOhZxS80BCzpjFWNhmsvI51vcT3rbzv9c72BQVpkP2iw_mejkwBRIoW0RIMCjofAlk7MBD_IdkFagMMxGqZZ3-lPdbozoKo1m4fNaeR_JArc07QeAU7fdRTuv9z9tciH1AnbUClZJwzzJOm1JtnpYfYalujr57YTdVextAmayJM6moyeiGut5yfpej7nKN6ukjVjO1wkBzRFBiyrvvPZcljX3SXIJ6XiApxgwj1KsFMESJRO1-cpxXeNjLc-LFVppuvyn8z5rTzVnF9ienrTxJ35ixwlpJ1-2rIeEmgMqS5ZQ8ewRp8t4WRzaBIIVmrC6pfocAhDHND-ekTIVBmAvQ3qX1pqsQSfmRvCQbEA-mC0]--></g></svg>